<?xml version="1.0" encoding="UTF-8" standalone="no"?>
<!-- Created with Inkscape (http://www.inkscape.org/) -->

<svg
   xmlns:dc="http://purl.org/dc/elements/1.1/"
   xmlns:cc="http://creativecommons.org/ns#"
   xmlns:rdf="http://www.w3.org/1999/02/22-rdf-syntax-ns#"
   xmlns:svg="http://www.w3.org/2000/svg"
   xmlns="http://www.w3.org/2000/svg"
   xmlns:sodipodi="http://sodipodi.sourceforge.net/DTD/sodipodi-0.dtd"
   xmlns:inkscape="http://www.inkscape.org/namespaces/inkscape"
   width="793.70081"
   height="1122.5197"
   viewBox="0 0 210 297"
   version="1.1"
   id="svg8"
   sodipodi:docname="buttons.svg"
   inkscape:version="0.92.3 (2405546, 2018-03-11)">
  <defs
     id="defs2" />
  <sodipodi:namedview
     id="base"
     pagecolor="#ffffff"
     bordercolor="#666666"
     borderopacity="1.0"
     inkscape:pageopacity="0.0"
     inkscape:pageshadow="2"
     inkscape:zoom="0.35"
     inkscape:cx="-131.42215"
     inkscape:cy="806.83079"
     inkscape:document-units="px"
     inkscape:current-layer="layer1"
     showgrid="false"
     inkscape:window-width="1920"
     inkscape:window-height="1001"
     inkscape:window-x="-9"
     inkscape:window-y="-9"
     inkscape:window-maximized="1"
     units="px" />
  <metadata
     id="metadata5">
    <rdf:RDF>
      <cc:Work
         rdf:about="">
        <dc:format>image/svg+xml</dc:format>
        <dc:type
           rdf:resource="http://purl.org/dc/dcmitype/StillImage" />
        <dc:title></dc:title>
      </cc:Work>
    </rdf:RDF>
  </metadata>
  <g
     inkscape:label="Layer 1"
     inkscape:groupmode="layer"
     id="layer1">
    <rect
       style="opacity:1;fill:#000080;fill-opacity:1;fill-rule:nonzero;stroke:#ffffff;stroke-width:1.05833316;stroke-linecap:round;stroke-linejoin:round;stroke-miterlimit:4;stroke-dasharray:none;stroke-opacity:1;paint-order:normal"
       id="rect845"
       width="761.38763"
       height="415.20035"
       x="-340.5741"
       y="-108.64809"
       rx="14.398603"
       ry="11.818344" />
    <g
       transform="translate(28.933216,30.527289)"
       id="g924">
      <path
         style="opacity:1;fill:none;fill-opacity:1;fill-rule:nonzero;stroke:#ffffff;stroke-width:1.11125004;stroke-linecap:round;stroke-linejoin:round;stroke-miterlimit:4;stroke-dasharray:26.67, 26.67;stroke-dashoffset:0;stroke-opacity:1;paint-order:normal"
         id="path838"
         sodipodi:type="arc"
         sodipodi:cx="153.16924"
         sodipodi:cy="189.95839"
         sodipodi:rx="68.35849"
         sodipodi:ry="68.358543"
         sodipodi:start="0"
         sodipodi:end="6.2785427"
         d="m 221.52773,189.95839 a 68.35849,68.358543 0 0 1 -68.27915,68.3585 68.35849,68.358543 0 0 1 -68.437651,-68.19982 68.35849,68.358543 0 0 1 68.120281,-68.51681 68.35849,68.358543 0 0 1 68.59578,68.04077"
         sodipodi:open="true" />
      <g
         id="g910"
         transform="translate(25.925144,-11.759859)">
        <path
           inkscape:connector-curvature="0"
           id="path874"
           d="m 88.71815,240.81624 77.05194,-77.44516"
           style="fill:none;fill-opacity:1;stroke:#ffffff;stroke-width:5.29166603;stroke-linecap:round;stroke-linejoin:miter;stroke-miterlimit:4;stroke-dasharray:none;stroke-opacity:1" />
        <path
           style="fill:none;fill-opacity:1;stroke:#ffffff;stroke-width:5.29166603;stroke-linecap:round;stroke-linejoin:miter;stroke-miterlimit:4;stroke-dasharray:none;stroke-opacity:1"
           d="M 165.96669,240.61963 88.521546,163.56769"
           id="path898"
           inkscape:connector-curvature="0" />
        <g
           transform="rotate(1.6853188,154.23726,-1015.6328)"
           id="g854">
          <g
             transform="translate(71.093694,3.2072343)"
             id="g859">
            <path
               style="opacity:1;fill:#000000;fill-opacity:1;fill-rule:nonzero;stroke:#ffffff;stroke-width:13.22916698;stroke-linecap:round;stroke-linejoin:round;stroke-miterlimit:4;stroke-dasharray:none;stroke-opacity:1;paint-order:normal"
               id="path827"
               sodipodi:type="arc"
               sodipodi:cx="91.964561"
               sodipodi:cy="198.77827"
               sodipodi:rx="34.395565"
               sodipodi:ry="34.395832"
               sodipodi:start="0"
               sodipodi:end="6.2785427"
               sodipodi:open="true"
               d="M 126.36013,198.77827 A 34.395565,34.395832 0 0 1 92.004483,233.17408 34.395565,34.395832 0 0 1 57.569089,198.85812 34.395565,34.395832 0 0 1 91.844798,164.38265 34.395565,34.395832 0 0 1 126.35976,198.61859" />
            <text
               xml:space="preserve"
               style="font-style:normal;font-weight:normal;font-size:8.7916317px;line-height:1.25;font-family:sans-serif;letter-spacing:0px;word-spacing:0px;fill:#000000;fill-opacity:1;stroke:#ffffff;stroke-width:2.11666656;stroke-miterlimit:4;stroke-dasharray:none;stroke-opacity:1"
               x="76.026382"
               y="211.0424"
               id="text831"
               transform="scale(0.99992161,1.0000784)"><tspan
                 sodipodi:role="line"
                 id="tspan829"
                 x="76.026382"
                 y="211.0424"
                 style="font-style:normal;font-variant:normal;font-weight:normal;font-stretch:normal;font-size:42.19983292px;font-family:SWGothe;-inkscape-font-specification:SWGothe;fill:#ffffff;stroke:#ffffff;stroke-width:2.11666656;stroke-miterlimit:4;stroke-dasharray:none;stroke-opacity:1">A</tspan></text>
          </g>
        </g>
        <path
           style="opacity:1;fill:none;fill-opacity:1;fill-rule:nonzero;stroke:#ffffff;stroke-width:3.96874976;stroke-linecap:round;stroke-linejoin:round;stroke-miterlimit:4;stroke-dasharray:none;stroke-opacity:1;paint-order:normal"
           id="path870"
           sodipodi:type="arc"
           sodipodi:cx="127.24403"
           sodipodi:cy="201.71825"
           sodipodi:rx="64.161354"
           sodipodi:ry="64.161453"
           sodipodi:start="0"
           sodipodi:end="6.2785427"
           sodipodi:open="true"
           d="m 191.40539,201.71825 a 64.161354,64.161453 0 0 1 -64.08689,64.16141 64.161354,64.161453 0 0 1 -64.235647,-64.01248 64.161354,64.161453 0 0 1 63.937777,-64.31 64.161354,64.161453 0 0 1 64.38407,63.86319" />
        <path
           style="opacity:1;fill:none;fill-opacity:1;fill-rule:nonzero;stroke:#ffffff;stroke-width:2.64583325;stroke-linecap:round;stroke-linejoin:round;stroke-miterlimit:4;stroke-dasharray:none;stroke-opacity:1;paint-order:normal"
           id="path872"
           sodipodi:type="arc"
           sodipodi:cx="127.24406"
           sodipodi:cy="201.71825"
           sodipodi:rx="46.302017"
           sodipodi:ry="46.302078"
           sodipodi:start="0"
           sodipodi:end="6.2785427"
           sodipodi:open="true"
           d="m 173.54607,201.71825 a 46.302017,46.302078 0 0 1 -46.24827,46.30204 46.302017,46.302078 0 0 1 -46.355636,-46.19456 46.302017,46.302078 0 0 1 46.140676,-46.40928 46.302017,46.302078 0 0 1 46.46273,46.08683" />
        <path
           transform="rotate(135)"
           d="m 98.963173,-232.61151 a 46.302017,46.302078 0 0 1 -46.248277,46.30205 46.302017,46.302078 0 0 1 -46.3556328,-46.19457 46.302017,46.302078 0 0 1 46.1406708,-46.40928 46.302017,46.302078 0 0 1 46.46274,46.08684"
           sodipodi:open="true"
           sodipodi:end="6.2785427"
           sodipodi:start="0"
           sodipodi:ry="46.302078"
           sodipodi:rx="46.302017"
           sodipodi:cy="-232.61151"
           sodipodi:cx="52.661156"
           sodipodi:type="arc"
           id="path896"
           style="opacity:1;fill:none;fill-opacity:1;fill-rule:nonzero;stroke:#ffffff;stroke-width:2.64583325;stroke-linecap:round;stroke-linejoin:round;stroke-miterlimit:4;stroke-dasharray:none;stroke-opacity:1;paint-order:normal" />
      </g>
    </g>
    <g
       id="g1036"
       transform="translate(230.47805,-55.449325)">
      <path
         sodipodi:open="true"
         d="m 175.44666,205.10104 a 68.35849,68.358543 0 0 1 -68.27915,68.3585 68.35849,68.358543 0 0 1 -68.437643,-68.19982 68.35849,68.358543 0 0 1 68.120283,-68.51681 68.35849,68.358543 0 0 1 68.59578,68.04077"
         sodipodi:end="6.2785427"
         sodipodi:start="0"
         sodipodi:ry="68.358543"
         sodipodi:rx="68.35849"
         sodipodi:cy="205.10104"
         sodipodi:cx="107.08817"
         sodipodi:type="arc"
         id="path972"
         style="opacity:1;fill:none;fill-opacity:1;fill-rule:nonzero;stroke:#ffffff;stroke-width:1.11125004;stroke-linecap:round;stroke-linejoin:round;stroke-miterlimit:4;stroke-dasharray:26.67, 26.67;stroke-dashoffset:0;stroke-opacity:1;paint-order:normal" />
      <path
         inkscape:connector-curvature="0"
         id="path974"
         d="M 68.562228,244.19903 145.61417,166.75387"
         style="fill:none;fill-opacity:1;stroke:#ffffff;stroke-width:5.29166603;stroke-linecap:round;stroke-linejoin:miter;stroke-miterlimit:4;stroke-dasharray:none;stroke-opacity:1" />
      <path
         style="fill:none;fill-opacity:1;stroke:#ffffff;stroke-width:5.29166603;stroke-linecap:round;stroke-linejoin:miter;stroke-miterlimit:4;stroke-dasharray:none;stroke-opacity:1"
         d="M 145.81077,244.00242 68.365624,166.95048"
         id="path976"
         inkscape:connector-curvature="0" />
      <path
         transform="rotate(1.6853188)"
         style="opacity:1;fill:#000000;fill-opacity:1;fill-rule:nonzero;stroke:#ffffff;stroke-width:13.22916698;stroke-linecap:round;stroke-linejoin:round;stroke-miterlimit:4;stroke-dasharray:none;stroke-opacity:1;paint-order:normal"
         id="path978"
         sodipodi:type="arc"
         sodipodi:cx="113.07394"
         sodipodi:cy="201.86282"
         sodipodi:rx="34.395565"
         sodipodi:ry="34.395832"
         sodipodi:start="0"
         sodipodi:end="6.2785427"
         sodipodi:open="true"
         d="m 147.4695,201.86282 a 34.395565,34.395832 0 0 1 -34.35564,34.39581 34.395565,34.395832 0 0 1 -34.435396,-34.31596 34.395565,34.395832 0 0 1 34.275706,-34.47547 34.395565,34.395832 0 0 1 34.51496,34.23594" />
      <text
         xml:space="preserve"
         style="font-style:normal;font-weight:normal;font-size:8.7916317px;line-height:1.25;font-family:sans-serif;letter-spacing:0px;word-spacing:0px;fill:#000000;fill-opacity:1;stroke:#ffffff;stroke-width:2.11666656;stroke-miterlimit:4;stroke-dasharray:none;stroke-opacity:1"
         x="97.137413"
         y="214.12671"
         id="text982"
         transform="matrix(0.99948907,0.02940782,-0.02941243,0.99964579,0,0)"><tspan
           sodipodi:role="line"
           id="tspan980"
           x="97.137413"
           y="214.12671"
           style="font-style:normal;font-variant:normal;font-weight:normal;font-stretch:normal;font-size:42.19983292px;font-family:SWGothe;-inkscape-font-specification:SWGothe;fill:#ffffff;stroke:#ffffff;stroke-width:2.11666656;stroke-miterlimit:4;stroke-dasharray:none;stroke-opacity:1">Z</tspan></text>
      <path
         style="opacity:1;fill:none;fill-opacity:1;fill-rule:nonzero;stroke:#ffffff;stroke-width:3.96874976;stroke-linecap:round;stroke-linejoin:round;stroke-miterlimit:4;stroke-dasharray:none;stroke-opacity:1;paint-order:normal"
         id="path988"
         sodipodi:type="arc"
         sodipodi:cx="107.08811"
         sodipodi:cy="205.10103"
         sodipodi:rx="64.161354"
         sodipodi:ry="64.161453"
         sodipodi:start="0"
         sodipodi:end="6.2785427"
         sodipodi:open="true"
         d="m 171.24947,205.10103 a 64.161354,64.161453 0 0 1 -64.08689,64.16141 64.161354,64.161453 0 0 1 -64.235649,-64.01247 64.161354,64.161453 0 0 1 63.937779,-64.31001 64.161354,64.161453 0 0 1 64.38406,63.86319" />
      <path
         style="opacity:1;fill:none;fill-opacity:1;fill-rule:nonzero;stroke:#ffffff;stroke-width:2.64583325;stroke-linecap:round;stroke-linejoin:round;stroke-miterlimit:4;stroke-dasharray:none;stroke-opacity:1;paint-order:normal"
         id="path990"
         sodipodi:type="arc"
         sodipodi:cx="107.08813"
         sodipodi:cy="205.10103"
         sodipodi:rx="46.302017"
         sodipodi:ry="46.302078"
         sodipodi:start="0"
         sodipodi:end="6.2785427"
         sodipodi:open="true"
         d="m 153.39014,205.10103 a 46.302017,46.302078 0 0 1 -46.24827,46.30205 46.302017,46.302078 0 0 1 -46.355635,-46.19457 46.302017,46.302078 0 0 1 46.140675,-46.40928 46.302017,46.302078 0 0 1 46.46274,46.08684" />
      <path
         transform="rotate(135)"
         d="m 115.60755,-220.75111 a 46.302017,46.302078 0 0 1 -46.248275,46.30204 46.302017,46.302078 0 0 1 -46.355633,-46.19456 46.302017,46.302078 0 0 1 46.140671,-46.40928 46.302017,46.302078 0 0 1 46.462737,46.08683"
         sodipodi:open="true"
         sodipodi:end="6.2785427"
         sodipodi:start="0"
         sodipodi:ry="46.302078"
         sodipodi:rx="46.302017"
         sodipodi:cy="-220.75111"
         sodipodi:cx="69.305534"
         sodipodi:type="arc"
         id="path992"
         style="opacity:1;fill:none;fill-opacity:1;fill-rule:nonzero;stroke:#ffffff;stroke-width:2.64583325;stroke-linecap:round;stroke-linejoin:round;stroke-miterlimit:4;stroke-dasharray:none;stroke-opacity:1;paint-order:normal" />
    </g>
    <path
       d="m -193.53191,229.90103 a 31.786453,31.786453 0 0 1 -31.74956,31.78643 31.786453,31.786453 0 0 1 -31.82326,-31.71264 31.786453,31.786453 0 0 1 31.67569,-31.86005 31.786453,31.786453 0 0 1 31.89679,31.63869"
       sodipodi:open="true"
       sodipodi:end="6.2785427"
       sodipodi:start="0"
       sodipodi:ry="31.786453"
       sodipodi:rx="31.786453"
       sodipodi:cy="229.90103"
       sodipodi:cx="-225.31836"
       sodipodi:type="arc"
       id="path1093"
       style="opacity:1;fill:#000000;fill-opacity:1;fill-rule:nonzero;stroke:none;stroke-width:3.96875024;stroke-linecap:round;stroke-linejoin:miter;stroke-miterlimit:4;stroke-dasharray:none;stroke-dashoffset:0;stroke-opacity:1;paint-order:normal" />
    <path
       inkscape:transform-center-x="2.6160326e-005"
       d="m -168.90548,231.41547 -40.06583,13.97981 -17.86157,40.9187 -13.9798,-40.06583 -40.91871,-17.86156 40.06583,-13.97981 17.86157,-40.9187 13.9798,40.06583 z"
       inkscape:randomized="0"
       inkscape:rounded="0"
       inkscape:flatsided="false"
       sodipodi:arg2="0.75861944"
       sodipodi:arg1="0.026839214"
       sodipodi:r2="22.523323"
       sodipodi:r1="56.433277"
       sodipodi:cy="229.90103"
       sodipodi:cx="-225.31843"
       sodipodi:sides="4"
       id="path1071"
       style="opacity:1;fill:none;fill-opacity:1;fill-rule:nonzero;stroke:#ffffff;stroke-width:1.32291663;stroke-linecap:round;stroke-linejoin:miter;stroke-miterlimit:4;stroke-dasharray:none;stroke-dashoffset:0;stroke-opacity:1;paint-order:normal"
       sodipodi:type="star" />
    <path
       sodipodi:type="star"
       style="opacity:1;fill:#ffffff;fill-opacity:1;fill-rule:nonzero;stroke:#000000;stroke-width:2.64583325;stroke-linecap:round;stroke-linejoin:miter;stroke-miterlimit:4;stroke-dasharray:none;stroke-dashoffset:0;stroke-opacity:1;paint-order:normal"
       id="path1064"
       sodipodi:sides="4"
       sodipodi:cx="-225.56276"
       sodipodi:cy="229.97931"
       sodipodi:r1="44.900845"
       sodipodi:r2="17.920567"
       sodipodi:arg1="0.026839214"
       sodipodi:arg2="0.75861944"
       inkscape:flatsided="false"
       inkscape:rounded="0"
       inkscape:randomized="0"
       d="m -180.67809,231.18427 -31.87817,11.12296 -14.21146,32.55675 -11.12296,-31.87817 -32.55675,-14.21146 31.87817,-11.12296 14.21146,-32.55675 11.12296,31.87817 z"
       inkscape:transform-center-x="9.2224824e-006" />
    <path
       style="opacity:1;fill:#ffffff;fill-opacity:1;fill-rule:nonzero;stroke:#000000;stroke-width:2.11666656;stroke-linecap:round;stroke-linejoin:miter;stroke-miterlimit:4;stroke-dasharray:none;stroke-dashoffset:0;stroke-opacity:1;paint-order:normal"
       id="path1052"
       sodipodi:type="arc"
       sodipodi:cx="-225.31841"
       sodipodi:cy="229.90103"
       sodipodi:rx="26.458334"
       sodipodi:ry="26.458334"
       sodipodi:start="0"
       sodipodi:end="6.2785427"
       sodipodi:open="true"
       d="m -198.86007,229.90103 a 26.458334,26.458334 0 0 1 -26.42763,26.45832 26.458334,26.458334 0 0 1 -26.48897,-26.3969 26.458334,26.458334 0 0 1 26.36614,-26.51959 26.458334,26.458334 0 0 1 26.55017,26.33534" />
    <path
       style="opacity:1;fill:#000000;fill-opacity:1;fill-rule:nonzero;stroke:none;stroke-width:3.96875;stroke-linecap:round;stroke-linejoin:miter;stroke-miterlimit:4;stroke-dasharray:none;stroke-dashoffset:0;stroke-opacity:1;paint-order:normal"
       id="path1058"
       sodipodi:type="arc"
       sodipodi:cx="-225.31836"
       sodipodi:cy="229.90103"
       sodipodi:rx="18.501934"
       sodipodi:ry="18.501934"
       sodipodi:start="0"
       sodipodi:end="6.2785427"
       sodipodi:open="true"
       d="m -206.81643,229.90103 a 18.501934,18.501934 0 0 1 -18.48046,18.50192 18.501934,18.501934 0 0 1 -18.52335,-18.45897 18.501934,18.501934 0 0 1 18.43746,-18.54477 18.501934,18.501934 0 0 1 18.56616,18.41592" />
    <path
       style="opacity:1;fill:none;fill-opacity:1;fill-rule:nonzero;stroke:#ffffff;stroke-width:3.96875048;stroke-linecap:round;stroke-linejoin:miter;stroke-miterlimit:4;stroke-dasharray:none;stroke-dashoffset:0;stroke-opacity:1;paint-order:normal"
       id="path1075"
       sodipodi:type="arc"
       sodipodi:cx="-225.31845"
       sodipodi:cy="229.90103"
       sodipodi:rx="51.290047"
       sodipodi:ry="51.290054"
       sodipodi:start="0"
       sodipodi:end="6.2785427"
       sodipodi:open="true"
       d="m -174.0284,229.90103 a 51.290047,51.290054 0 0 1 -51.23052,51.29002 51.290047,51.290054 0 0 1 -51.34944,-51.17096 51.290047,51.290054 0 0 1 51.11132,-51.4088 51.290047,51.290054 0 0 1 51.46808,51.05162" />
    <path
       d="m -165.8818,229.90103 a 59.436653,59.436646 0 0 1 -59.36767,59.43661 59.436653,59.436646 0 0 1 -59.50547,-59.29864 59.436653,59.436646 0 0 1 59.22953,-59.57425 59.436653,59.436646 0 0 1 59.64297,59.16034"
       sodipodi:open="true"
       sodipodi:end="6.2785427"
       sodipodi:start="0"
       sodipodi:ry="59.436646"
       sodipodi:rx="59.436653"
       sodipodi:cy="229.90103"
       sodipodi:cx="-225.31845"
       sodipodi:type="arc"
       id="path1079"
       style="opacity:1;fill:none;fill-opacity:1;fill-rule:nonzero;stroke:#ffffff;stroke-width:3.96875;stroke-linecap:round;stroke-linejoin:miter;stroke-miterlimit:4;stroke-dasharray:none;stroke-dashoffset:0;stroke-opacity:1;paint-order:normal" />
    <rect
       style="opacity:1;fill:#ffffff;fill-opacity:1;fill-rule:nonzero;stroke:#ffffff;stroke-width:2.11666656;stroke-linecap:round;stroke-linejoin:miter;stroke-miterlimit:4;stroke-dasharray:none;stroke-dashoffset:0;stroke-opacity:1;paint-order:normal"
       id="rect1133"
       width="89.958336"
       height="95.25"
       x="-308.42856"
       y="-85.511917" />
  </g>
</svg>
