<?xml version="1.0" encoding="UTF-8" standalone="no"?>
<!-- Created with Inkscape (http://www.inkscape.org/) -->

<svg
   xmlns:dc="http://purl.org/dc/elements/1.1/"
   xmlns:cc="http://creativecommons.org/ns#"
   xmlns:rdf="http://www.w3.org/1999/02/22-rdf-syntax-ns#"
   xmlns:svg="http://www.w3.org/2000/svg"
   xmlns="http://www.w3.org/2000/svg"
   xmlns:sodipodi="http://sodipodi.sourceforge.net/DTD/sodipodi-0.dtd"
   xmlns:inkscape="http://www.inkscape.org/namespaces/inkscape"
   width="210mm"
   height="297mm"
   viewBox="0 0 210 297"
   version="1.1"
   id="svg2269"
   inkscape:version="0.92.3 (2405546, 2018-03-11)"
   sodipodi:docname="drawing.svg">
  <defs
     id="defs2263">
    <filter
       inkscape:collect="always"
       style="color-interpolation-filters:sRGB"
       id="filter2862"
       x="-0.034369443"
       width="1.0687389"
       y="-0.34525783"
       height="1.6905157">
      <feGaussianBlur
         inkscape:collect="always"
         stdDeviation="1.1484894"
         id="feGaussianBlur2864" />
    </filter>
    <filter
       inkscape:collect="always"
       style="color-interpolation-filters:sRGB"
       id="filter2914"
       x="-0.015103032"
       width="1.0302061"
       y="-0.11288256"
       height="1.2257651">
      <feGaussianBlur
         inkscape:collect="always"
         stdDeviation="0.60803779"
         id="feGaussianBlur2916" />
    </filter>
  </defs>
  <sodipodi:namedview
     id="base"
     pagecolor="#ffffff"
     bordercolor="#666666"
     borderopacity="1.0"
     inkscape:pageopacity="0.0"
     inkscape:pageshadow="2"
     inkscape:zoom="2.8"
     inkscape:cx="147.3792"
     inkscape:cy="117.74411"
     inkscape:document-units="mm"
     inkscape:current-layer="g1615"
     showgrid="false"
     showborder="false"
     inkscape:window-width="1920"
     inkscape:window-height="1001"
     inkscape:window-x="-9"
     inkscape:window-y="-9"
     inkscape:window-maximized="1" />
  <metadata
     id="metadata2266">
    <rdf:RDF>
      <cc:Work
         rdf:about="">
        <dc:format>image/svg+xml</dc:format>
        <dc:type
           rdf:resource="http://purl.org/dc/dcmitype/StillImage" />
        <dc:title />
      </cc:Work>
    </rdf:RDF>
  </metadata>
  <g
     inkscape:label="Layer 1"
     inkscape:groupmode="layer"
     id="layer1">
    <g
       id="g3163"
       transform="matrix(0.78361369,0,0,1.3708775,257.37129,-16.813575)">
      <g
         id="g879"
         transform="matrix(0.94971046,0,0,1.083723,-16.149558,-18.042843)">
        <g
           id="g1615"
           transform="matrix(1.0086739,0,0,0.9980945,3.9874897,11.529581)">
          <ellipse
             transform="matrix(1.0502819,0.01224649,0.89624265,-0.21053051,14.961243,127.63293)"
             ry="6.6125064"
             rx="25.862125"
             cy="-406.13406"
             cx="51.725189"
             id="path2814"
             style="opacity:0.85199998;fill:#676c53;fill-opacity:1;fill-rule:evenodd;stroke:#000000;stroke-width:0.15238144;stroke-linejoin:round;stroke-miterlimit:4;stroke-dasharray:none;stroke-opacity:1;filter:url(#filter2914)" />
          <ellipse
             transform="matrix(0.99974465,0.02259712,0.9100896,-0.41441153,-0.24316389,0.21101325)"
             ry="4.0844655"
             rx="17.041533"
             cy="-505.61514"
             cx="165.73317"
             id="path2814-3"
             style="opacity:0.91399997;fill:#676c53;fill-opacity:1;fill-rule:evenodd;stroke:#000000;stroke-width:0.09721625;stroke-linejoin:round;stroke-miterlimit:4;stroke-dasharray:none;stroke-opacity:1;filter:url(#filter2862)" />
          <path
             transform="matrix(0.81531238,0,0,0.18110997,-52.604625,175.85801)"
             d="m -296.00098,203.32204 c 0.0201,0.58292 -0.77584,0.31468 -0.96885,0.0334 -0.52302,-0.76225 0.15963,-1.70629 0.90204,-1.97111 1.32798,-0.4737 2.65751,0.5665 2.97336,1.83747 0.46352,1.8652 -0.97476,3.62551 -2.77291,3.97562 -2.39666,0.46665 -4.59996,-1.38297 -4.97788,-3.70835 -0.47558,-2.92626 1.79103,-5.5776 4.64379,-5.98014 3.45509,-0.48752 6.55708,2.19897 6.9824,5.57924 0.50121,3.98352 -2.60684,7.53769 -6.51468,7.98465 -4.51175,0.51602 -8.51907,-3.01465 -8.98691,-7.45012 -0.53158,-5.03985 3.42244,-9.50099 8.38556,-9.98916 5.56787,-0.54766 10.48329,3.83019 10.99142,9.32099 0.56412,6.09584 -4.23793,11.46589 -10.25643,11.99368 -6.60377,0.57912 -12.41908,-4.61552 -12.99153,-11.14035"
             sodipodi:t0="0"
             sodipodi:argument="-17.313229"
             sodipodi:radius="12.599991"
             sodipodi:revolution="3.2493477"
             sodipodi:expansion="1"
             sodipodi:cy="203.32204"
             sodipodi:cx="-296.00098"
             id="path2962"
             style="opacity:0.38999999;fill:#00ffff;fill-rule:evenodd;stroke:#000000;stroke-width:0.26458332"
             sodipodi:type="spiral" />
          <path
             transform="matrix(1.2562793,0,0,0.22943697,75.937182,163.36458)"
             d="m -296.00098,203.32204 c 0.0201,0.58292 -0.77584,0.31468 -0.96885,0.0334 -0.52303,-0.76225 0.15963,-1.7063 0.90204,-1.97112 1.32798,-0.4737 2.65752,0.56651 2.97337,1.83748 0.46352,1.86521 -0.97476,3.62552 -2.77292,3.97564 -2.39666,0.46664 -4.59997,-1.38298 -4.9779,-3.70837 -0.47557,-2.92627 1.79104,-5.57762 4.64381,-5.98016 3.4551,-0.48752 6.5571,2.19898 6.98242,5.57926 0.50122,3.98354 -2.60684,7.53772 -6.5147,7.98467 -4.51177,0.51603 -8.5191,-3.01466 -8.98694,-7.45014 -0.53158,-5.03987 3.42245,-9.50102 8.38559,-9.98919 5.56789,-0.54767 10.48332,3.8302 10.99146,9.32102 0.56412,6.09586 -4.23795,11.46593 -10.25647,11.99372"
             sodipodi:t0="0"
             sodipodi:argument="-17.313229"
             sodipodi:radius="11.633135"
             sodipodi:revolution="3"
             sodipodi:expansion="1"
             sodipodi:cy="203.32204"
             sodipodi:cx="-296.00098"
             id="path2962-1"
             style="opacity:0.38999999;fill:#00ffff;fill-rule:evenodd;stroke:#000000;stroke-width:0.26458332"
             sodipodi:type="spiral" />
          <path
             transform="matrix(1.7227959,0,0,0.22943697,213.57524,155.36212)"
             d="m -296.00098,203.32204 c 0.0201,0.58292 -0.77584,0.31468 -0.96885,0.0334 -0.52303,-0.76225 0.15963,-1.7063 0.90204,-1.97112 1.32798,-0.4737 2.65752,0.56651 2.97337,1.83748 0.46352,1.86521 -0.97476,3.62552 -2.77292,3.97564 -2.39666,0.46664 -4.59997,-1.38298 -4.9779,-3.70837 -0.47557,-2.92627 1.79104,-5.57762 4.64381,-5.98016 3.4551,-0.48752 6.5571,2.19898 6.98242,5.57926 0.50122,3.98354 -2.60684,7.53772 -6.5147,7.98467 -4.51177,0.51603 -8.5191,-3.01466 -8.98694,-7.45014 -0.53158,-5.03987 3.42245,-9.50102 8.38559,-9.98919 5.56789,-0.54767 10.48332,3.8302 10.99146,9.32102 0.56412,6.09586 -4.23795,11.46593 -10.25647,11.99372"
             sodipodi:t0="0"
             sodipodi:argument="-17.313229"
             sodipodi:radius="11.633135"
             sodipodi:revolution="3"
             sodipodi:expansion="1"
             sodipodi:cy="203.32204"
             sodipodi:cx="-296.00098"
             id="path2962-1-0"
             style="opacity:0.38999999;fill:#00ffff;fill-rule:evenodd;stroke:#000000;stroke-width:0.26458332"
             sodipodi:type="spiral" />
          <path
             transform="matrix(1.4383099,0,0,0.22943697,129.64232,160.69709)"
             d="m -296.00098,203.32204 c 0.0201,0.58292 -0.77584,0.31468 -0.96885,0.0334 -0.52303,-0.76225 0.15963,-1.7063 0.90204,-1.97112 1.32798,-0.4737 2.65752,0.56651 2.97337,1.83748 0.46352,1.86521 -0.97476,3.62552 -2.77292,3.97564 -2.39666,0.46664 -4.59997,-1.38298 -4.9779,-3.70837 -0.47557,-2.92627 1.79104,-5.57762 4.64381,-5.98016 3.4551,-0.48752 6.5571,2.19898 6.98242,5.57926 0.50122,3.98354 -2.60684,7.53772 -6.5147,7.98467 -4.51177,0.51603 -8.5191,-3.01466 -8.98694,-7.45014 -0.53158,-5.03987 3.42245,-9.50102 8.38559,-9.98919 5.56789,-0.54767 10.48332,3.8302 10.99146,9.32102 0.56412,6.09586 -4.23795,11.46593 -10.25647,11.99372"
             sodipodi:t0="0"
             sodipodi:argument="-17.313229"
             sodipodi:radius="11.633135"
             sodipodi:revolution="3"
             sodipodi:expansion="1"
             sodipodi:cy="203.32204"
             sodipodi:cx="-296.00098"
             id="path2962-1-0-5"
             style="opacity:0.38999999;fill:#00ffff;fill-rule:evenodd;stroke:#000000;stroke-width:0.26458332"
             sodipodi:type="spiral" />
          <path
             transform="matrix(1.5204462,0,0,0.22943697,153.87529,158.02961)"
             d="m -296.00098,203.32204 c 0.0201,0.58292 -0.77584,0.31468 -0.96885,0.0334 -0.52303,-0.76225 0.15963,-1.7063 0.90204,-1.97112 1.32798,-0.4737 2.65752,0.56651 2.97337,1.83748 0.46352,1.86521 -0.97476,3.62552 -2.77292,3.97564 -2.39666,0.46664 -4.59997,-1.38298 -4.9779,-3.70837 -0.47557,-2.92627 1.79104,-5.57762 4.64381,-5.98016 3.4551,-0.48752 6.5571,2.19898 6.98242,5.57926 0.50122,3.98354 -2.60684,7.53772 -6.5147,7.98467 -4.51177,0.51603 -8.5191,-3.01466 -8.98694,-7.45014 -0.53158,-5.03987 3.42245,-9.50102 8.38559,-9.98919 5.56789,-0.54767 10.48332,3.8302 10.99146,9.32102 0.56412,6.09586 -4.23795,11.46593 -10.25647,11.99372"
             sodipodi:t0="0"
             sodipodi:argument="-17.313229"
             sodipodi:radius="11.633135"
             sodipodi:revolution="3"
             sodipodi:expansion="1"
             sodipodi:cy="203.32204"
             sodipodi:cx="-296.00098"
             id="path2962-1-0-1-56"
             style="opacity:0.38999999;fill:#00ffff;fill-rule:evenodd;stroke:#000000;stroke-width:0.26458332"
             sodipodi:type="spiral" />
          <path
             transform="matrix(1.8900816,0,0,0.22943697,262.93014,152.36054)"
             d="m -296.00098,203.32204 c 0.0201,0.58292 -0.77584,0.31468 -0.96885,0.0334 -0.52303,-0.76225 0.15963,-1.7063 0.90204,-1.97112 1.32798,-0.4737 2.65752,0.56651 2.97337,1.83748 0.46352,1.86521 -0.97476,3.62552 -2.77292,3.97564 -2.39666,0.46664 -4.59997,-1.38298 -4.9779,-3.70837 -0.47557,-2.92627 1.79104,-5.57762 4.64381,-5.98016 3.4551,-0.48752 6.5571,2.19898 6.98242,5.57926 0.50122,3.98354 -2.60684,7.53772 -6.5147,7.98467 -4.51177,0.51603 -8.5191,-3.01466 -8.98694,-7.45014 -0.53158,-5.03987 3.42245,-9.50102 8.38559,-9.98919 5.56789,-0.54767 10.48332,3.8302 10.99146,9.32102 0.56412,6.09586 -4.23795,11.46593 -10.25647,11.99372"
             sodipodi:t0="0"
             sodipodi:argument="-17.313229"
             sodipodi:radius="11.633135"
             sodipodi:revolution="3"
             sodipodi:expansion="1"
             sodipodi:cy="203.32204"
             sodipodi:cx="-296.00098"
             id="path2962-1-0-4"
             style="opacity:0.38999999;fill:#00ffff;fill-rule:evenodd;stroke:#000000;stroke-width:0.26458332"
             sodipodi:type="spiral" />
          <path
             transform="matrix(1.9750454,0,0,0.22943697,287.99732,149.96033)"
             d="m -296.00098,203.32204 c 0.0201,0.58292 -0.77584,0.31468 -0.96885,0.0334 -0.52303,-0.76225 0.15963,-1.7063 0.90204,-1.97112 1.32798,-0.4737 2.65752,0.56651 2.97337,1.83748 0.46352,1.86521 -0.97476,3.62552 -2.77292,3.97564 -2.39666,0.46664 -4.59997,-1.38298 -4.9779,-3.70837 -0.47557,-2.92627 1.79104,-5.57762 4.64381,-5.98016 3.4551,-0.48752 6.5571,2.19898 6.98242,5.57926 0.50122,3.98354 -2.60684,7.53772 -6.5147,7.98467 -4.51177,0.51603 -8.5191,-3.01466 -8.98694,-7.45014 -0.53158,-5.03987 3.42245,-9.50102 8.38559,-9.98919 5.56789,-0.54767 10.48332,3.8302 10.99146,9.32102 0.56412,6.09586 -4.23795,11.46593 -10.25647,11.99372"
             sodipodi:t0="0"
             sodipodi:argument="-17.313229"
             sodipodi:radius="11.633135"
             sodipodi:revolution="3"
             sodipodi:expansion="1"
             sodipodi:cy="203.32204"
             sodipodi:cx="-296.00098"
             id="path2962-1-0-7"
             style="opacity:0.38999999;fill:#00ffff;fill-rule:evenodd;stroke:#000000;stroke-width:0.26458332"
             sodipodi:type="spiral" />
          <path
             transform="matrix(2.1225753,0,0,0.22943697,331.52359,147.35966)"
             d="m -296.00098,203.32204 c 0.0201,0.58292 -0.77584,0.31468 -0.96885,0.0334 -0.52303,-0.76225 0.15963,-1.7063 0.90204,-1.97112 1.32798,-0.4737 2.65752,0.56651 2.97337,1.83748 0.46352,1.86521 -0.97476,3.62552 -2.77292,3.97564 -2.39666,0.46664 -4.59997,-1.38298 -4.9779,-3.70837 -0.47557,-2.92627 1.79104,-5.57762 4.64381,-5.98016 3.4551,-0.48752 6.5571,2.19898 6.98242,5.57926 0.50122,3.98354 -2.60684,7.53772 -6.5147,7.98467 -4.51177,0.51603 -8.5191,-3.01466 -8.98694,-7.45014 -0.53158,-5.03987 3.42245,-9.50102 8.38559,-9.98919 5.56789,-0.54767 10.48332,3.8302 10.99146,9.32102 0.56412,6.09586 -4.23795,11.46593 -10.25647,11.99372"
             sodipodi:t0="0"
             sodipodi:argument="-17.313229"
             sodipodi:radius="11.633135"
             sodipodi:revolution="3"
             sodipodi:expansion="1"
             sodipodi:cy="203.32204"
             sodipodi:cx="-296.00098"
             id="path2962-1-0-2"
             style="opacity:0.38999999;fill:#00ffff;fill-rule:evenodd;stroke:#000000;stroke-width:0.26458332"
             sodipodi:type="spiral" />
          <path
             transform="matrix(2.2388721,0,0,0.22943697,365.83505,144.69217)"
             d="m -296.00098,203.32204 c 0.0201,0.58292 -0.77584,0.31468 -0.96885,0.0334 -0.52303,-0.76225 0.15963,-1.7063 0.90204,-1.97112 1.32798,-0.4737 2.65752,0.56651 2.97337,1.83748 0.46352,1.86521 -0.97476,3.62552 -2.77292,3.97564 -2.39666,0.46664 -4.59997,-1.38298 -4.9779,-3.70837 -0.47557,-2.92627 1.79104,-5.57762 4.64381,-5.98016 3.4551,-0.48752 6.5571,2.19898 6.98242,5.57926 0.50122,3.98354 -2.60684,7.53772 -6.5147,7.98467 -4.51177,0.51603 -8.5191,-3.01466 -8.98694,-7.45014 -0.53158,-5.03987 3.42245,-9.50102 8.38559,-9.98919 5.56789,-0.54767 10.48332,3.8302 10.99146,9.32102 0.56412,6.09586 -4.23795,11.46593 -10.25647,11.99372"
             sodipodi:t0="0"
             sodipodi:argument="-17.313229"
             sodipodi:radius="11.633135"
             sodipodi:revolution="3"
             sodipodi:expansion="1"
             sodipodi:cy="203.32204"
             sodipodi:cx="-296.00098"
             id="path2962-1-0-40"
             style="opacity:0.38999999;fill:#00ffff;fill-rule:evenodd;stroke:#000000;stroke-width:0.26458332"
             sodipodi:type="spiral" />
          <path
             transform="matrix(2.4007165,0,0,0.22943697,413.58459,142.02468)"
             d="m -296.00098,203.32204 c 0.0201,0.58292 -0.77584,0.31468 -0.96885,0.0334 -0.52303,-0.76225 0.15963,-1.7063 0.90204,-1.97112 1.32798,-0.4737 2.65752,0.56651 2.97337,1.83748 0.46352,1.86521 -0.97476,3.62552 -2.77292,3.97564 -2.39666,0.46664 -4.59997,-1.38298 -4.9779,-3.70837 -0.47557,-2.92627 1.79104,-5.57762 4.64381,-5.98016 3.4551,-0.48752 6.5571,2.19898 6.98242,5.57926 0.50122,3.98354 -2.60684,7.53772 -6.5147,7.98467 -4.51177,0.51603 -8.5191,-3.01466 -8.98694,-7.45014 -0.53158,-5.03987 3.42245,-9.50102 8.38559,-9.98919 5.56789,-0.54767 10.48332,3.8302 10.99146,9.32102 0.56412,6.09586 -4.23795,11.46593 -10.25647,11.99372"
             sodipodi:t0="0"
             sodipodi:argument="-17.313229"
             sodipodi:radius="11.633135"
             sodipodi:revolution="3"
             sodipodi:expansion="1"
             sodipodi:cy="203.32204"
             sodipodi:cx="-296.00098"
             id="path2962-1-0-42"
             style="opacity:0.38999999;fill:#00ffff;fill-rule:evenodd;stroke:#000000;stroke-width:0.26458332"
             sodipodi:type="spiral" />
          <path
             transform="matrix(2.5198961,0,0,0.22943697,448.74657,139.42401)"
             d="m -296.00098,203.32204 c 0.0201,0.58292 -0.77584,0.31468 -0.96885,0.0334 -0.52303,-0.76225 0.15963,-1.7063 0.90204,-1.97112 1.32798,-0.4737 2.65752,0.56651 2.97337,1.83748 0.46352,1.86521 -0.97476,3.62552 -2.77292,3.97564 -2.39666,0.46664 -4.59997,-1.38298 -4.9779,-3.70837 -0.47557,-2.92627 1.79104,-5.57762 4.64381,-5.98016 3.4551,-0.48752 6.5571,2.19898 6.98242,5.57926 0.50122,3.98354 -2.60684,7.53772 -6.5147,7.98467 -4.51177,0.51603 -8.5191,-3.01466 -8.98694,-7.45014 -0.53158,-5.03987 3.42245,-9.50102 8.38559,-9.98919 5.56789,-0.54767 10.48332,3.8302 10.99146,9.32102 0.56412,6.09586 -4.23795,11.46593 -10.25647,11.99372"
             sodipodi:t0="0"
             sodipodi:argument="-17.313229"
             sodipodi:radius="11.633135"
             sodipodi:revolution="3"
             sodipodi:expansion="1"
             sodipodi:cy="203.32204"
             sodipodi:cx="-296.00098"
             id="path2962-1-0-1"
             style="opacity:0.38999999;fill:#00ffff;fill-rule:evenodd;stroke:#000000;stroke-width:0.26458332"
             sodipodi:type="spiral" />
          <path
             transform="matrix(2.7138657,0,0,0.22943697,505.97411,136.6897)"
             d="m -296.00098,203.32204 c 0.0201,0.58292 -0.77584,0.31468 -0.96885,0.0334 -0.52303,-0.76225 0.15963,-1.7063 0.90204,-1.97112 1.32798,-0.4737 2.65752,0.56651 2.97337,1.83748 0.46352,1.86521 -0.97476,3.62552 -2.77292,3.97564 -2.39666,0.46664 -4.59997,-1.38298 -4.9779,-3.70837 -0.47557,-2.92627 1.79104,-5.57762 4.64381,-5.98016 3.4551,-0.48752 6.5571,2.19898 6.98242,5.57926 0.50122,3.98354 -2.60684,7.53772 -6.5147,7.98467 -4.51177,0.51603 -8.5191,-3.01466 -8.98694,-7.45014 -0.53158,-5.03987 3.42245,-9.50102 8.38559,-9.98919 5.56789,-0.54767 10.48332,3.8302 10.99146,9.32102 0.56412,6.09586 -4.23795,11.46593 -10.25647,11.99372"
             sodipodi:t0="0"
             sodipodi:argument="-17.313229"
             sodipodi:radius="11.633135"
             sodipodi:revolution="3"
             sodipodi:expansion="1"
             sodipodi:cy="203.32204"
             sodipodi:cx="-296.00098"
             id="path2962-1-0-46"
             style="opacity:0.38999999;fill:#00ffff;fill-rule:evenodd;stroke:#000000;stroke-width:0.26458332"
             sodipodi:type="spiral" />
        </g>
      </g>
    </g>
  </g>
</svg>
