<?xml version="1.0" encoding="UTF-8" standalone="no"?>
<!-- Created with Inkscape (http://www.inkscape.org/) -->

<svg
   xmlns:dc="http://purl.org/dc/elements/1.1/"
   xmlns:cc="http://creativecommons.org/ns#"
   xmlns:rdf="http://www.w3.org/1999/02/22-rdf-syntax-ns#"
   xmlns:svg="http://www.w3.org/2000/svg"
   xmlns="http://www.w3.org/2000/svg"
   xmlns:sodipodi="http://sodipodi.sourceforge.net/DTD/sodipodi-0.dtd"
   xmlns:inkscape="http://www.inkscape.org/namespaces/inkscape"
   width="8.5in"
   height="11in"
   viewBox="0 0 215.9 279.4"
   version="1.1"
   id="svg8"
   inkscape:version="0.92.3 (2405546, 2018-03-11)"
   sodipodi:docname="power_up_head.svg">
  <defs
     id="defs2" />
  <sodipodi:namedview
     id="base"
     pagecolor="#ffffff"
     bordercolor="#666666"
     borderopacity="1.0"
     inkscape:pageopacity="0.0"
     inkscape:pageshadow="2"
     inkscape:zoom="1.4"
     inkscape:cx="327.22708"
     inkscape:cy="731.19504"
     inkscape:document-units="mm"
     inkscape:current-layer="layer1"
     showgrid="false"
     showborder="true"
     units="px"
     showguides="false"
     inkscape:window-width="1920"
     inkscape:window-height="1017"
     inkscape:window-x="-8"
     inkscape:window-y="-8"
     inkscape:window-maximized="1" />
  <metadata
     id="metadata5">
    <rdf:RDF>
      <cc:Work
         rdf:about="">
        <dc:format>image/svg+xml</dc:format>
        <dc:type
           rdf:resource="http://purl.org/dc/dcmitype/StillImage" />
        <dc:title></dc:title>
      </cc:Work>
    </rdf:RDF>
  </metadata>
  <g
     inkscape:label="Layer 1"
     inkscape:groupmode="layer"
     id="layer1"
     style="display:inline"
     transform="translate(0,-17.6)">
    <path
       style="fill:none;stroke:#000000;stroke-width:0.24647057px;stroke-linecap:butt;stroke-linejoin:miter;stroke-opacity:1"
       d="M 121.00671,64.097707 C 110.39192,47.497938 96.95314,49.44129 87.169249,65.296521 45.51525,120.82107 163.78472,124.56076 121.00671,64.097707 Z"
       id="path4651"
       inkscape:connector-curvature="0"
       sodipodi:nodetypes="ccc" />
    <path
       style="fill:#ffd5d5;fill-opacity:1;stroke:#000000;stroke-width:0.24977951px;stroke-linecap:butt;stroke-linejoin:miter;stroke-opacity:1"
       d="m 104.62321,75.59118 c 8.75408,-9.708997 13.29816,-12.511484 22.93624,0.06251 -7.54696,4.675541 -15.16895,4.812134 -22.93624,-0.06251 z"
       id="path4683"
       inkscape:connector-curvature="0"
       sodipodi:nodetypes="ccc" />
    <path
       style="fill:none;stroke:#000000;stroke-width:0.24647057px;stroke-linecap:butt;stroke-linejoin:miter;stroke-opacity:1"
       d="M 84.714641,69.313504 Z"
       id="path4685"
       inkscape:connector-curvature="0" />
    <path
       style="display:inline;fill:#ffd5d5;stroke:#000000;stroke-width:0.26342741px;stroke-linecap:butt;stroke-linejoin:miter;stroke-opacity:1"
       d="M 104.62321,75.59118 C 95.385323,65.431411 90.778259,61.709112 81.062089,75.543247 c 7.891879,4.785204 15.628139,5.541081 23.561121,0.04793 z"
       id="path4683-9"
       inkscape:connector-curvature="0"
       sodipodi:nodetypes="ccc" />
    <path
       style="fill:none;stroke:#000000;stroke-width:0.18976711px;stroke-linecap:butt;stroke-linejoin:miter;stroke-opacity:1"
       d="m 106.28027,48.839976 -2.2729,3.38124 -2.19982,1.202714 2.13107,-4.276312 1.51238,-2.806332 1.92484,-1.336347 z"
       id="path4721"
       inkscape:connector-curvature="0" />
    <path
       style="display:inline;fill:#280b0b;stroke:#000000;stroke-width:0.23848818px;stroke-linecap:butt;stroke-linejoin:miter;stroke-opacity:1"
       d="m 102.15253,48.643658 -3.848209,-3.154231 -3.724448,-1.121965 3.608054,3.989208 2.560553,2.61792 3.25889,1.246626 z"
       id="path4721-6"
       inkscape:connector-curvature="0" />
    <path
       style="fill:none;stroke:#000000;stroke-width:0.24647057px;stroke-linecap:butt;stroke-linejoin:miter;stroke-opacity:1"
       d="M 86.106213,97.376803 Z"
       id="path4746"
       inkscape:connector-curvature="0" />
    <path
       style="fill:none;stroke:#000000;stroke-width:0.24647057px;stroke-linecap:butt;stroke-linejoin:miter;stroke-opacity:1"
       d="M 87.613752,94.43684 Z"
       id="path4748"
       inkscape:connector-curvature="0" />
    <path
       style="fill:none;stroke:#000000;stroke-width:0.24647057px;stroke-linecap:butt;stroke-linejoin:miter;stroke-opacity:1"
       d="m 85.969666,86.656248 c 18.382274,2.891166 23.660214,1.797045 36.079654,-1.322917 -1.6106,14.046205 -4.7463,15.654609 -17.21983,17.386899 -14.161505,-0.9635 -14.178453,-1.80655 -18.859824,-16.063982 z"
       id="path4762"
       inkscape:connector-curvature="0"
       sodipodi:nodetypes="cccc" />
    <path
       style="fill:none;stroke:#000000;stroke-width:0.25036815px;stroke-linecap:butt;stroke-linejoin:miter;stroke-opacity:1"
       d="m 87.213862,91.22404 c 5.46667,2.808999 11.765762,2.620384 17.410388,3.18072 6.83305,-0.169431 11.8556,-0.918091 16.76907,-3.96875 v 0"
       id="path4764"
       inkscape:connector-curvature="0"
       sodipodi:nodetypes="cccc" />
    <path
       style="fill:none;stroke:#000000;stroke-width:0.24647057px;stroke-linecap:butt;stroke-linejoin:miter;stroke-opacity:1"
       d="m 90.561621,98.37351 c 6.362727,0.591903 13.231939,0.959897 27.551739,-0.755952 v -0.377976"
       id="path4768"
       inkscape:connector-curvature="0"
       sodipodi:nodetypes="ccc" />
    <path
       style="opacity:0.28300003;fill:#784421;fill-opacity:1;fill-rule:evenodd;stroke:#000000;stroke-width:0.23288557;stroke-linejoin:round;stroke-miterlimit:4;stroke-dasharray:none;stroke-opacity:1"
       d="m 95.940636,98.596554 c -0.856654,-0.04542 -2.369541,-0.149641 -3.361968,-0.231606 -2.042998,-0.168733 -1.790619,-0.04701 -2.452451,-1.182852 -0.196839,-0.337817 -0.526222,-0.975651 -0.731962,-1.417412 -0.417223,-0.895848 -1.556237,-3.876638 -1.504233,-3.936566 0.01834,-0.02114 0.582547,0.171907 1.253792,0.42899 2.891734,1.107511 5.504823,1.555498 11.921346,2.0438 3.36047,0.255733 4.8501,0.285951 6.84833,0.13892 5.16011,-0.379685 8.73916,-1.264598 11.99745,-2.966337 0.55603,-0.290401 1.02943,-0.528002 1.05201,-0.528002 0.15389,0 -0.56495,2.49633 -1.0804,3.751908 -0.4223,1.028671 -1.11236,2.291464 -1.43745,2.630495 -0.14528,0.151511 -0.16011,0.152493 -0.16011,0.01058 0,-0.09339 -0.0661,-0.156385 -0.164,-0.156385 -0.0911,0 -0.164,0.063 -0.164,0.14174 0,0.07796 -0.0203,0.14174 -0.0452,0.14174 -0.0249,0 -0.97504,0.104823 -2.11148,0.232939 -5.76908,0.650372 -9.53877,0.894593 -14.57114,0.943991 -2.052028,0.02014 -4.431859,-5.29e-4 -5.288514,-0.04595 z"
       id="path4772"
       inkscape:connector-curvature="0" />
    <path
       style="opacity:0.28300003;fill:#784421;fill-opacity:1;fill-rule:evenodd;stroke:#000000;stroke-width:0.23288557;stroke-linejoin:round;stroke-miterlimit:4;stroke-dasharray:none;stroke-opacity:1"
       d="M 102.87266,107.9535 C 96.079965,107.48879 90.215427,105.44944 85.716787,101.98767 83.040504,99.928223 80.91146,97.242858 79.723062,94.427776 77.85904,90.01228 77.820222,84.949308 79.608247,79.452902 79.94114,78.429583 80.570509,76.7894 80.913294,76.051845 l 0.136785,-0.294315 1.00405,0.563756 c 5.522657,3.100877 10.601291,3.975928 15.716551,2.70797 1.795179,-0.444984 4.28857,-1.55703 6.0388,-2.693294 l 0.80903,-0.525224 1.27779,0.708247 c 5.25082,2.910385 10.42078,3.587043 15.66866,2.050751 1.67609,-0.49067 3.60546,-1.322396 5.18481,-2.235107 0.39372,-0.227532 0.74693,-0.413695 0.78491,-0.413695 0.14888,0 1.31834,3.250962 1.76759,4.913691 1.53745,5.690266 1.33712,10.643523 -0.60286,14.905826 -2.99755,6.585899 -10.23839,11.025279 -19.68033,12.066079 -1.62803,0.17946 -4.6243,0.25111 -6.14642,0.14697 z m 4.13744,-5.38394 c 4.44394,-0.69478 6.64061,-1.31388 8.69191,-2.44968 2.38336,-1.31965 3.88496,-3.290553 4.90449,-6.437308 0.25835,-0.797399 0.74832,-2.686921 0.84092,-3.242966 0.0186,-0.111554 0.10801,-0.628047 0.19872,-1.147763 0.1585,-0.908058 0.57416,-3.855736 0.5746,-4.074805 1.6e-4,-0.07111 -0.29026,-0.03242 -0.88128,0.117422 -1.98154,0.502356 -6.63453,1.563047 -8.01543,1.827188 -4.20942,0.805188 -7.87122,1.081799 -12.39698,0.936464 -3.52698,-0.11326 -6.668353,-0.423421 -11.905699,-1.175502 -1.640588,-0.235587 -3.045013,-0.415459 -3.120941,-0.399716 -0.116346,0.02413 -0.02399,0.370353 0.58736,2.201984 0.501221,1.501682 0.712747,2.252041 0.684433,2.427938 -0.03004,0.186592 -0.0026,0.268619 0.102773,0.307155 0.09234,0.03377 0.302171,0.500383 0.586665,1.304576 0.9408,2.659377 2.11548,5.063794 2.981399,6.102527 1.884017,2.260016 4.287731,3.154616 9.93512,3.697546 3.66885,0.35272 4.00579,0.35299 6.23194,0.005 z"
       id="path4774"
       inkscape:connector-curvature="0" />
    <path
       style="opacity:0.28300003;fill:#784421;fill-opacity:1;fill-rule:evenodd;stroke:#000000;stroke-width:0.23288557;stroke-linejoin:round;stroke-miterlimit:4;stroke-dasharray:none;stroke-opacity:1"
       d="m 103.36113,73.960292 c -4.134355,-4.454705 -6.678328,-6.492602 -9.124236,-7.309146 -0.734533,-0.245219 -2.493822,-0.348059 -3.274415,-0.191413 -2.538943,0.509511 -5.171398,2.627762 -8.411071,6.768121 -0.325329,0.415774 -0.591449,0.71343 -0.591378,0.661458 1.82e-4,-0.132768 0.977598,-1.911233 1.78842,-3.254136 0.768285,-1.272448 1.959886,-3.059639 2.839091,-4.258141 0.324071,-0.441759 0.879084,-1.249683 1.233368,-1.795386 2.235292,-3.443039 4.829896,-6.390251 7.303822,-8.29641 4.686855,-3.611221 9.526939,-4.510156 14.333499,-2.662115 2.91056,1.119063 5.70873,3.268974 8.37758,6.43673 1.97762,2.347314 5.37231,7.402351 7.25648,10.805649 0.69644,1.257935 1.80261,3.43353 1.80261,3.545316 0,0.0343 -0.61807,-0.643659 -1.37348,-1.506572 -5.55931,-6.350386 -9.49677,-7.373138 -14.46793,-3.758043 -1.44565,1.051295 -3.24588,2.73922 -5.31438,4.982847 l -1.10699,1.200709 z"
       id="path4776"
       inkscape:connector-curvature="0" />
    <path
       style="opacity:0.28300003;fill:#280b0b;fill-opacity:1;fill-rule:evenodd;stroke:#000000;stroke-width:0.46577114;stroke-linejoin:round;stroke-miterlimit:4;stroke-dasharray:none;stroke-opacity:1"
       d="m 103.74138,51.242609 c -0.33539,-0.717685 -0.36331,-0.626229 0.95354,-3.124195 0.56303,-1.068038 1.04072,-1.732142 1.47115,-2.045266 0.35056,-0.255024 0.6749,-0.420452 0.72075,-0.367614 0.13642,0.157202 -0.61163,2.618411 -1.01302,3.333006 -0.20435,0.363802 -0.70208,1.149059 -1.10606,1.745014 l -0.73451,1.083556 z"
       id="path4778"
       inkscape:connector-curvature="0" />
    <path
       style="opacity:0.28300003;fill:#280b0b;fill-opacity:1;fill-rule:evenodd;stroke:#000000;stroke-width:0.46577114;stroke-linejoin:round;stroke-miterlimit:4;stroke-dasharray:none;stroke-opacity:1"
       d="m 103.75168,51.281207 c -0.34416,-0.671391 -0.32969,-0.722014 0.84987,-2.973944 0.65042,-1.241734 1.11786,-1.909188 1.56471,-2.234252 0.35046,-0.254948 0.67475,-0.420275 0.72064,-0.367393 0.0459,0.05288 -0.10954,0.76064 -0.34539,1.572795 -0.31762,1.093724 -0.69764,1.876964 -1.46545,3.02039 l -1.03664,1.543746 z"
       id="path4780"
       inkscape:connector-curvature="0" />
    <path
       style="opacity:0.28300003;fill:#280b0b;fill-opacity:1;fill-rule:evenodd;stroke:#000000;stroke-width:0.08233748;stroke-linejoin:round;stroke-miterlimit:4;stroke-dasharray:none;stroke-opacity:1"
       d="m 103.69536,51.329358 c -0.18504,-0.355862 -0.33644,-0.674693 -0.33644,-0.708512 0,-0.09762 0.60366,-1.289399 1.41497,-2.7935 l 0.74785,-1.386461 0.69429,-0.487278 c 0.60411,-0.423976 0.70287,-0.48291 0.76023,-0.453641 0.0363,0.01849 0.0731,0.06677 0.082,0.107267 0.01,0.04581 -0.15146,0.658953 -0.4273,1.622864 l -0.44334,1.549233 -1.05465,1.570289 c -0.58005,0.863661 -1.0651,1.582997 -1.07789,1.598525 -0.0128,0.01553 -0.17464,-0.262927 -0.35968,-0.618786 z"
       id="path4782"
       inkscape:connector-curvature="0" />
    <path
       style="opacity:0.28300003;fill:#280b0b;fill-opacity:1;fill-rule:evenodd;stroke:#000000;stroke-width:0.08233748;stroke-linejoin:round;stroke-miterlimit:4;stroke-dasharray:none;stroke-opacity:1"
       d="m 103.91317,51.647136 c -0.0694,-0.122465 -0.2159,-0.403199 -0.3256,-0.623856 l -0.19945,-0.40119 0.14292,-0.30825 c 0.19675,-0.424342 0.5922,-1.185262 1.35843,-2.613861 0.55492,-1.034622 0.66829,-1.226098 0.77044,-1.301137 0.37521,-0.275642 1.17329,-0.815131 1.2308,-0.832 0.11769,-0.03452 0.13564,0.02984 0.078,0.279683 -0.0288,0.124775 -0.22471,0.832202 -0.43537,1.572059 l -0.38303,1.345192 -1.04054,1.551429 c -0.5723,0.853286 -1.04727,1.552141 -1.05549,1.553011 -0.008,7.94e-4 -0.0717,-0.09862 -0.14109,-0.22108 z"
       id="path4784"
       inkscape:connector-curvature="0" />
    <path
       style="opacity:0.28300003;fill:#280b0b;fill-opacity:1;fill-rule:evenodd;stroke:#000000;stroke-width:0.08233748;stroke-linejoin:round;stroke-miterlimit:4;stroke-dasharray:none;stroke-opacity:1"
       d="m 103.99405,51.726678 c -0.0533,-0.0855 -0.35013,-0.654519 -0.48488,-0.929548 l -0.0918,-0.187338 0.3138,-0.631174 c 0.34452,-0.692965 1.40194,-2.684537 1.6921,-3.186941 l 0.1833,-0.317383 0.39096,-0.274249 c 0.57932,-0.406389 0.92119,-0.619371 0.95524,-0.595119 0.0166,0.01185 0.0225,0.06196 0.0131,0.111368 -0.0209,0.109535 -0.54107,1.991701 -0.71917,2.602283 l -0.12867,0.441116 -0.84872,1.262727 c -1.08902,1.620218 -1.18611,1.762379 -1.2096,1.771075 -0.0107,0.004 -0.0403,-0.02609 -0.0657,-0.06682 z"
       id="path4786"
       inkscape:connector-curvature="0" />
    <path
       style="opacity:0.28300003;fill:#280b0b;fill-opacity:1;fill-rule:evenodd;stroke:#000000;stroke-width:0.08233748;stroke-linejoin:round;stroke-miterlimit:4;stroke-dasharray:none;stroke-opacity:1"
       d="m 103.88967,51.494088 c -0.14884,-0.27395 -0.44377,-0.856184 -0.44377,-0.876075 0,-0.09364 1.61741,-3.181787 2.02058,-3.857924 0.18493,-0.310129 0.17277,-0.299723 0.99709,-0.853544 0.23264,-0.156294 0.43956,-0.284173 0.45984,-0.284173 0.0594,0 0.0256,0.138761 -0.4075,1.675308 l -0.40622,1.44101 -0.84456,1.256523 c -1.08006,1.606901 -1.18177,1.755878 -1.20578,1.766146 -0.0109,0.0047 -0.0873,-0.115602 -0.16968,-0.267271 z"
       id="path4788"
       inkscape:connector-curvature="0" />
    <path
       style="opacity:0.28300003;fill:#280b0b;fill-opacity:1;fill-rule:evenodd;stroke:#000000;stroke-width:0.08233748;stroke-linejoin:round;stroke-miterlimit:4;stroke-dasharray:none;stroke-opacity:1"
       d="m 103.91741,51.49395 c -0.27468,-0.505309 -0.44582,-0.868992 -0.43054,-0.914889 0.0717,-0.215228 1.55526,-3.039602 1.99087,-3.790109 0.16373,-0.282085 0.17263,-0.291036 0.55308,-0.556173 0.49308,-0.343635 0.86993,-0.582472 0.88736,-0.562385 0.0164,0.01894 -0.12482,0.551254 -0.52515,1.978729 l -0.30137,1.074605 -0.6474,0.963327 c -1.05547,1.570545 -1.3621,2.015699 -1.38843,2.015699 -0.0137,0 -0.076,-0.09396 -0.13842,-0.208804 z"
       id="path4790"
       inkscape:connector-curvature="0" />
    <path
       style="opacity:0.28300003;fill:#280b0b;fill-opacity:1;fill-rule:evenodd;stroke:#000000;stroke-width:0.08233748;stroke-linejoin:round;stroke-miterlimit:4;stroke-dasharray:none;stroke-opacity:1"
       d="m 104.00325,51.613089 c -0.0322,-0.05215 -0.16427,-0.297606 -0.29344,-0.545465 -0.12917,-0.247859 -0.23507,-0.420584 -0.23533,-0.383836 -4.6e-4,0.05538 -0.005,0.05824 -0.0286,0.01669 -0.0409,-0.07301 -0.0352,-0.134268 0.0107,-0.113961 0.0219,0.0097 0.0483,-0.008 0.0587,-0.03933 0.0616,-0.18501 1.47583,-2.881601 1.9101,-3.642101 0.10603,-0.185674 0.23562,-0.374952 0.288,-0.420614 0.1556,-0.135662 1.12612,-0.795297 1.17011,-0.795297 0.0103,0 0.0107,0.04886 6.9e-4,0.108577 -0.0184,0.111233 -0.33897,1.280496 -0.64132,2.338977 l -0.16949,0.593373 -0.98361,1.461262 c -0.54098,0.803693 -0.99361,1.473695 -1.00585,1.488893 -0.0122,0.01519 -0.0486,-0.01503 -0.0808,-0.06718 z"
       id="path4792"
       inkscape:connector-curvature="0" />
    <path
       style="opacity:0.28300003;fill:#280b0b;fill-opacity:1;fill-rule:evenodd;stroke:#000000;stroke-width:0.08233748;stroke-linejoin:round;stroke-miterlimit:4;stroke-dasharray:none;stroke-opacity:1"
       d="m 103.90044,51.393723 c -0.0712,-0.133217 -0.19149,-0.361431 -0.26738,-0.507142 l -0.13798,-0.264933 0.082,-0.169381 c 0.31543,-0.651317 1.39811,-2.706875 1.7985,-3.41463 0.22835,-0.40362 0.29197,-0.491694 0.43736,-0.605478 0.29732,-0.23267 1.03878,-0.711653 1.04867,-0.677445 0.011,0.03797 -0.14207,0.617734 -0.52511,1.989111 l -0.27061,0.968852 -0.82212,1.219417 c -0.96596,1.432769 -1.15511,1.703842 -1.18889,1.703842 -0.0138,0 -0.0833,-0.108995 -0.15447,-0.242213 z"
       id="path4794"
       inkscape:connector-curvature="0" />
    <path
       style="opacity:0.28300003;fill:#280b0b;fill-opacity:1;fill-rule:evenodd;stroke:#000000;stroke-width:0.08233748;stroke-linejoin:round;stroke-miterlimit:4;stroke-dasharray:none;stroke-opacity:1"
       d="m 103.97717,51.499019 c -0.0475,-0.08088 -0.15589,-0.28236 -0.24085,-0.447735 -0.085,-0.165373 -0.17163,-0.323924 -0.1926,-0.352338 -0.0322,-0.04356 -0.024,-0.08287 0.0518,-0.250566 0.11815,-0.261392 1.12917,-2.198642 1.56839,-3.005232 0.40775,-0.748814 0.50346,-0.890278 0.70023,-1.034934 0.23705,-0.174263 0.95339,-0.652206 0.97753,-0.652206 0.0322,0 -0.15667,0.715291 -0.6044,2.288495 l -0.19016,0.668174 -0.43675,0.65147 c -0.24021,0.358307 -0.67218,0.996632 -0.95994,1.418497 -0.28776,0.421868 -0.53751,0.788721 -0.55501,0.815232 -0.0261,0.0395 -0.0474,0.02167 -0.1182,-0.09886 z"
       id="path4796"
       inkscape:connector-curvature="0" />
    <path
       style="opacity:0.28300003;fill:#280b0b;fill-opacity:1;fill-rule:evenodd;stroke:#000000;stroke-width:0.08233748;stroke-linejoin:round;stroke-miterlimit:4;stroke-dasharray:none;stroke-opacity:1"
       d="m 103.9833,51.482787 c -0.027,-0.04748 -0.14046,-0.260686 -0.25214,-0.473784 l -0.20305,-0.387448 0.0656,-0.135927 c 0.16143,-0.334412 1.00328,-1.947357 1.40489,-2.691691 0.6012,-1.114279 0.65922,-1.200896 0.94857,-1.416182 0.34663,-0.257897 0.83208,-0.566769 0.85297,-0.542705 0.0227,0.02617 0.0176,0.04607 -0.40382,1.57957 l -0.35024,1.274411 -0.85407,1.26465 c -0.90605,1.341623 -1.09864,1.61544 -1.13622,1.61544 -0.0129,0 -0.0455,-0.03885 -0.0725,-0.08633 z"
       id="path4798"
       inkscape:connector-curvature="0" />
    <path
       style="opacity:0.28300003;fill:#280b0b;fill-opacity:1;fill-rule:evenodd;stroke:#000000;stroke-width:0.08233748;stroke-linejoin:round;stroke-miterlimit:4;stroke-dasharray:none;stroke-opacity:1"
       d="m 102.43658,52.401257 c 0.0408,-0.08099 0.1165,-0.234178 0.16817,-0.340411 0.0683,-0.140493 0.10688,-0.188402 0.1414,-0.175728 0.0261,0.0096 0.25415,0.09703 0.50678,0.194326 l 0.45933,0.1769 -0.14043,0.07299 c -0.0973,0.05054 -0.26969,0.08919 -0.5608,0.125674 -0.2312,0.02898 -0.47174,0.06187 -0.53452,0.0731 l -0.11416,0.0204 z"
       id="path4800"
       inkscape:connector-curvature="0" />
    <path
       style="opacity:0.28300003;fill:#280b0b;fill-opacity:1;fill-rule:evenodd;stroke:#000000;stroke-width:0.08233748;stroke-linejoin:round;stroke-miterlimit:4;stroke-dasharray:none;stroke-opacity:1"
       d="m 102.43658,52.401257 c 0.0408,-0.08099 0.11522,-0.231569 0.16533,-0.334616 l 0.0911,-0.18736 0.50755,0.186383 0.50755,0.186383 -0.12386,0.07191 c -0.0893,0.05186 -0.2451,0.08746 -0.55873,0.127696 -0.23918,0.03068 -0.48624,0.06503 -0.54902,0.07632 l -0.11416,0.02053 z"
       id="path4802"
       inkscape:connector-curvature="0" />
    <path
       style="opacity:0.28300003;fill:#280b0b;fill-opacity:1;fill-rule:evenodd;stroke:#000000;stroke-width:0.08233748;stroke-linejoin:round;stroke-miterlimit:4;stroke-dasharray:none;stroke-opacity:1"
       d="m 102.40515,52.468257 c 0.0246,-0.04434 0.10101,-0.195384 0.16973,-0.335645 l 0.12494,-0.255019 0.45276,0.174461 c 0.24902,0.09595 0.47234,0.182711 0.49625,0.192794 0.0287,0.01209 -9.1e-4,0.04153 -0.087,0.08644 -0.0856,0.0447 -0.27195,0.08595 -0.54221,0.120044 -0.22646,0.02856 -0.46745,0.0622 -0.53552,0.07475 l -0.12378,0.02281 z"
       id="path4804"
       inkscape:connector-curvature="0" />
    <path
       style="opacity:0.28300003;fill:#280b0b;fill-opacity:1;fill-rule:evenodd;stroke:#000000;stroke-width:0.08233748;stroke-linejoin:round;stroke-miterlimit:4;stroke-dasharray:none;stroke-opacity:1"
       d="m 102.43121,52.492133 c 0,-0.01611 0.2582,-0.527505 0.27965,-0.553889 0.0207,-0.02548 0.87743,0.310216 0.86253,0.337994 -0.0233,0.04351 -0.21065,0.08889 -0.59135,0.143251 -0.19931,0.02846 -0.40479,0.05992 -0.45661,0.06992 -0.0518,0.01 -0.0942,0.01122 -0.0942,0.0027 z"
       id="path4806"
       inkscape:connector-curvature="0" />
    <path
       style="opacity:0.28300003;fill:#280b0b;fill-opacity:1;fill-rule:evenodd;stroke:#000000;stroke-width:0.08233748;stroke-linejoin:round;stroke-miterlimit:4;stroke-dasharray:none;stroke-opacity:1"
       d="m 102.46503,52.446098 c 0.0338,-0.08768 0.23575,-0.478295 0.25398,-0.491273 0.0282,-0.02011 0.84285,0.289862 0.84285,0.320728 0,0.03347 -0.23825,0.08714 -0.64344,0.144952 -0.40215,0.05737 -0.46706,0.06104 -0.45339,0.02558 z"
       id="path4808"
       inkscape:connector-curvature="0" />
    <path
       style="opacity:0.28300003;fill:#280b0b;fill-opacity:1;fill-rule:evenodd;stroke:#000000;stroke-width:0.08233748;stroke-linejoin:round;stroke-miterlimit:4;stroke-dasharray:none;stroke-opacity:1"
       d="m 102.58114,52.231878 c 0.0665,-0.134831 0.12564,-0.251888 0.13138,-0.260122 0.0155,-0.0222 0.79136,0.27541 0.79136,0.303543 0,0.03019 -0.22632,0.08128 -0.56533,0.127627 -0.1435,0.01963 -0.30984,0.04432 -0.36964,0.05488 l -0.10871,0.01921 z"
       id="path4810"
       inkscape:connector-curvature="0" />
    <path
       style="opacity:0.28300003;fill:#280b0b;fill-opacity:1;fill-rule:evenodd;stroke:#000000;stroke-width:0.08233748;stroke-linejoin:round;stroke-miterlimit:4;stroke-dasharray:none;stroke-opacity:1"
       d="m 102.51818,52.41706 c 0,-0.05199 0.2109,-0.413628 0.24122,-0.413628 0.0357,0 0.66306,0.233989 0.68408,0.255124 0.0285,0.02862 -0.0358,0.04446 -0.44603,0.10999 -0.48615,0.07765 -0.47927,0.07695 -0.47927,0.04851 z"
       id="path4812"
       inkscape:connector-curvature="0" />
    <path
       style="opacity:0.28300003;fill:#280b0b;fill-opacity:1;fill-rule:evenodd;stroke:#000000;stroke-width:0.08233748;stroke-linejoin:round;stroke-miterlimit:4;stroke-dasharray:none;stroke-opacity:1"
       d="m 102.15474,52.97464 c 0.044,-0.09807 0.078,-0.111765 0.37794,-0.152124 l 0.14495,-0.0195 -0.20022,0.121142 c -0.11012,0.06663 -0.23734,0.126553 -0.2827,0.133167 -0.0819,0.01193 -0.0821,0.01132 -0.04,-0.08268 z"
       id="path4814"
       inkscape:connector-curvature="0" />
    <path
       style="opacity:0.28300003;fill:#280b0b;fill-opacity:1;fill-rule:evenodd;stroke:#000000;stroke-width:0.08233748;stroke-linejoin:round;stroke-miterlimit:4;stroke-dasharray:none;stroke-opacity:1"
       d="m 102.14472,53.074949 c -0.0314,-0.02236 -0.0296,-0.04311 0.009,-0.111749 0.0483,-0.08505 0.0956,-0.102608 0.37855,-0.140684 l 0.14495,-0.0195 -0.19335,0.117149 c -0.10634,0.06443 -0.21071,0.121309 -0.23193,0.126397 -0.0212,0.0051 -0.0454,0.01974 -0.0538,0.03255 -0.008,0.01281 -0.0326,0.01095 -0.0538,-0.0042 z"
       id="path4816"
       inkscape:connector-curvature="0" />
    <path
       style="opacity:0.28300003;fill:#280b0b;fill-opacity:1;fill-rule:evenodd;stroke:#000000;stroke-width:0.08233748;stroke-linejoin:round;stroke-miterlimit:4;stroke-dasharray:none;stroke-opacity:1"
       d="m 102.12821,53.081408 c -0.008,-0.02519 0.005,-0.08141 0.0297,-0.124913 0.0353,-0.06204 0.0883,-0.08752 0.24569,-0.11812 0.11039,-0.02146 0.2136,-0.03393 0.22935,-0.02772 0.0157,0.0062 -0.088,0.07998 -0.23044,0.163926 -0.19624,0.11562 -0.26277,0.141528 -0.27433,0.106828 z"
       id="path4818"
       inkscape:connector-curvature="0" />
    <path
       style="opacity:0.28300003;fill:#280b0b;fill-opacity:1;fill-rule:evenodd;stroke:#000000;stroke-width:0.08233748;stroke-linejoin:round;stroke-miterlimit:4;stroke-dasharray:none;stroke-opacity:1"
       d="m 102.12055,53.089459 c -0.0204,-0.02299 -0.0126,-0.06178 0.0246,-0.122531 0.0444,-0.07253 0.0917,-0.09612 0.25683,-0.128223 0.11132,-0.02164 0.21529,-0.03426 0.23104,-0.02805 0.0157,0.0062 -0.0864,0.07906 -0.22696,0.161875 -0.17264,0.101711 -0.26529,0.139663 -0.28547,0.11693 z m 0.25268,-0.170556 c 0,-0.03155 -0.0803,-0.0096 -0.13217,0.03622 -0.0515,0.04543 -0.0483,0.04657 0.0379,0.01344 0.0518,-0.01992 0.0942,-0.04227 0.0942,-0.04965 z"
       id="path4820"
       inkscape:connector-curvature="0" />
    <path
       style="opacity:0.28300003;fill:#280b0b;fill-opacity:1;fill-rule:evenodd;stroke:#000000;stroke-width:0.08233748;stroke-linejoin:round;stroke-miterlimit:4;stroke-dasharray:none;stroke-opacity:1"
       d="m 102.11306,53.090258 c -0.0175,-0.02434 -0.005,-0.06906 0.0369,-0.128042 0.0524,-0.07437 0.10428,-0.0985 0.28918,-0.134467 0.12394,-0.0241 0.22178,-0.03257 0.21743,-0.01881 -0.004,0.01376 -0.12236,0.09111 -0.26224,0.171876 -0.18088,0.104439 -0.2621,0.136046 -0.28126,0.10944 z"
       id="path4822"
       inkscape:connector-curvature="0" />
    <path
       style="opacity:0.28300003;fill:#280b0b;fill-opacity:1;fill-rule:evenodd;stroke:#000000;stroke-width:0.08233748;stroke-linejoin:round;stroke-miterlimit:4;stroke-dasharray:none;stroke-opacity:1"
       d="m 102.11514,53.095814 c -0.0152,-0.01749 -0.006,-0.06923 0.0216,-0.125119 0.0413,-0.08297 0.0738,-0.100121 0.2507,-0.132537 0.11178,-0.02048 0.21955,-0.04331 0.23948,-0.05073 0.0199,-0.0074 0.0362,0.0011 0.0362,0.01873 0,0.05002 -0.51824,0.323948 -0.548,0.289653 z m 0.25567,-0.178784 c 0.007,-0.0063 -0.008,-0.01156 -0.033,-0.01156 -0.0248,0 -0.0759,0.02991 -0.11354,0.06646 l -0.0684,0.06646 0.10147,-0.0549 c 0.0558,-0.03019 0.10691,-0.0601 0.11355,-0.06646 z"
       id="path4824"
       inkscape:connector-curvature="0" />
    <path
       style="opacity:0.28300003;fill:#280b0b;fill-opacity:1;fill-rule:evenodd;stroke:#000000;stroke-width:0.08233748;stroke-linejoin:round;stroke-miterlimit:4;stroke-dasharray:none;stroke-opacity:1"
       d="m 102.1179,53.098997 c -0.0495,-0.05708 0.0653,-0.237903 0.15986,-0.251669 0.0445,-0.0065 0.14946,-0.02384 0.23317,-0.03859 0.22758,-0.04006 0.19042,0.02434 -0.10702,0.185529 -0.17479,0.09472 -0.26578,0.128037 -0.28601,0.104727 z"
       id="path4826"
       inkscape:connector-curvature="0" />
    <path
       style="opacity:0.28300003;fill:#280b0b;fill-opacity:1;fill-rule:evenodd;stroke:#000000;stroke-width:0.08233748;stroke-linejoin:round;stroke-miterlimit:4;stroke-dasharray:none;stroke-opacity:1"
       d="m 101.64845,53.586294 c 0,-0.0097 0.0518,-0.119936 0.11514,-0.244893 0.10412,-0.205441 0.16566,-0.266407 0.27095,-0.268433 0.013,-2.52e-4 0.0151,0.0309 0.004,0.06923 -0.0173,0.06275 -0.013,0.06584 0.0434,0.03108 0.045,-0.02773 0.0543,-0.05013 0.0331,-0.07951 -0.0208,-0.02892 -0.0108,-0.06746 0.0344,-0.131545 0.0523,-0.07432 0.10428,-0.0985 0.28851,-0.134335 0.12358,-0.02402 0.22468,-0.0339 0.22468,-0.02193 0,0.01199 -0.11192,0.08569 -0.24871,0.163799 -0.1368,0.07811 -0.24379,0.147698 -0.23778,0.154635 0.006,0.0069 0.0886,-0.02273 0.18349,-0.0659 0.0949,-0.04319 0.2443,-0.08713 0.33199,-0.09765 l 0.15945,-0.01913 -0.36238,0.202817 c -0.56416,0.31574 -0.84075,0.461076 -0.84075,0.441785 z"
       id="path4828"
       inkscape:connector-curvature="0" />
    <path
       style="opacity:0.28300003;fill:#280b0b;fill-opacity:1;fill-rule:evenodd;stroke:#000000;stroke-width:0.08233748;stroke-linejoin:round;stroke-miterlimit:4;stroke-dasharray:none;stroke-opacity:1"
       d="m 102.54717,52.398045 c 0,-0.01548 0.0406,-0.111062 0.0903,-0.212421 0.0757,-0.154652 0.10022,-0.180996 0.1522,-0.163798 0.30367,0.100459 0.6227,0.233912 0.60526,0.253182 -0.0118,0.01304 -0.16498,0.04652 -0.34037,0.07439 -0.48148,0.07651 -0.50735,0.07899 -0.50735,0.04864 z"
       id="path4830"
       inkscape:connector-curvature="0" />
    <path
       style="opacity:0.28300003;fill:#280b0b;fill-opacity:1;fill-rule:evenodd;stroke:#000000;stroke-width:0.08233748;stroke-linejoin:round;stroke-miterlimit:4;stroke-dasharray:none;stroke-opacity:1"
       d="m 102.6232,52.245645 c 0.0432,-0.08728 0.0893,-0.172937 0.10262,-0.19035 0.0148,-0.01945 0.14174,0.01214 0.32907,0.08191 0.16976,0.06323 0.28866,0.123624 0.26824,0.136255 -0.0298,0.01841 -0.68034,0.130876 -0.75707,0.130876 -0.0117,0 0.014,-0.07141 0.0571,-0.158691 z"
       id="path4832"
       inkscape:connector-curvature="0" />
    <path
       style="opacity:0.28300003;fill:#280b0b;fill-opacity:1;fill-rule:evenodd;stroke:#000000;stroke-width:0.08233748;stroke-linejoin:round;stroke-miterlimit:4;stroke-dasharray:none;stroke-opacity:1"
       d="m 102.60515,52.352565 c 0,-0.01011 0.0194,-0.06154 0.0431,-0.114313 0.0331,-0.07366 0.0347,-0.0993 0.007,-0.110389 -0.0489,-0.01971 0.0585,-0.158425 0.12088,-0.156155 0.0254,0.0011 0.13757,0.03701 0.24918,0.08019 0.16245,0.06284 0.18559,0.07954 0.11597,0.0837 -0.0834,0.005 -0.0816,0.0078 0.0435,0.06663 l 0.13047,0.06143 -0.10148,0.02027 c -0.40698,0.08125 -0.60881,0.104011 -0.60881,0.06865 z"
       id="path4834"
       inkscape:connector-curvature="0" />
    <path
       style="opacity:0.28300003;fill:#280b0b;fill-opacity:1;fill-rule:evenodd;stroke:#000000;stroke-width:0.08233748;stroke-linejoin:round;stroke-miterlimit:4;stroke-dasharray:none;stroke-opacity:1"
       d="m 104.00429,51.480099 c -0.12365,-0.202311 -0.44243,-0.822772 -0.44243,-0.861131 0,-0.05208 0.53249,-1.100543 1.14897,-2.262278 0.63875,-1.203722 0.82662,-1.535501 0.97325,-1.718818 0.11012,-0.137676 0.64226,-0.532728 1.00421,-0.745521 0.11517,-0.06771 0.12448,-0.06882 0.11129,-0.01323 -0.048,0.20219 -0.26357,0.99349 -0.50142,1.840297 l -0.27466,0.977841 -0.77181,1.143611 c -0.74832,1.108787 -1.08197,1.597033 -1.15447,1.689354 -0.0287,0.03652 -0.0455,0.02742 -0.0929,-0.05011 z"
       id="path4836"
       inkscape:connector-curvature="0" />
    <path
       style="opacity:0.28300003;fill:#280b0b;fill-opacity:1;fill-rule:evenodd;stroke:#000000;stroke-width:0.08233748;stroke-linejoin:round;stroke-miterlimit:4;stroke-dasharray:none;stroke-opacity:1"
       d="m 103.96998,51.588573 c -0.0643,-0.0789 -0.0645,-0.08103 -0.007,-0.09187 0.0518,-0.0098 0.0325,-0.05951 -0.17079,-0.439502 -0.22645,-0.423339 -0.22864,-0.429562 -0.18504,-0.52673 0.15816,-0.352438 1.55223,-2.993472 1.84127,-3.488224 0.24975,-0.427516 0.34281,-0.526325 0.76659,-0.81398 0.4746,-0.322151 0.45022,-0.300866 0.3479,-0.303649 -0.0862,-0.0024 -0.0858,-0.0031 0.0428,-0.08783 0.0714,-0.047 0.16794,-0.09426 0.21462,-0.105021 0.0845,-0.01947 0.0848,-0.01905 0.0665,0.11244 -0.0172,0.123794 -0.22825,0.912329 -0.61433,2.295078 l -0.16639,0.595911 -0.82677,1.224862 c -0.97494,1.444365 -1.16225,1.70929 -1.20852,1.70929 -0.019,0 -0.0642,-0.03635 -0.10039,-0.08077 z"
       id="path4838"
       inkscape:connector-curvature="0" />
    <path
       style="opacity:0.28300003;fill:#280b0b;fill-opacity:1;fill-rule:evenodd;stroke:#000000;stroke-width:0.08233748;stroke-linejoin:round;stroke-miterlimit:4;stroke-dasharray:none;stroke-opacity:1"
       d="m 107.06978,45.527252 c 0,-0.01556 -0.0271,-0.04223 -0.0602,-0.05924 -0.0555,-0.02853 -0.0506,-0.03716 0.0628,-0.110617 0.10485,-0.06791 0.12015,-0.07104 0.10354,-0.02117 -0.0107,0.03218 -0.0274,0.09469 -0.037,0.138922 -0.0164,0.07509 -0.0692,0.11489 -0.0692,0.05212 z"
       id="path4840"
       inkscape:connector-curvature="0" />
    <path
       style="opacity:0.28300003;fill:#280b0b;fill-opacity:1;fill-rule:evenodd;stroke:#000000;stroke-width:0.08233748;stroke-linejoin:round;stroke-miterlimit:4;stroke-dasharray:none;stroke-opacity:1"
       d="m 107.06978,45.522783 c 0,-0.01802 -0.0336,-0.04249 -0.0746,-0.05437 -0.0733,-0.02122 -0.0725,-0.02302 0.0476,-0.101643 0.0673,-0.04403 0.12652,-0.07518 0.13169,-0.06922 0.0178,0.02045 -0.0564,0.258001 -0.0806,0.258001 -0.0133,0 -0.0241,-0.01474 -0.0241,-0.03277 z"
       id="path4842"
       inkscape:connector-curvature="0" />
    <path
       style="opacity:0.28300003;fill:#280b0b;fill-opacity:1;fill-rule:evenodd;stroke:#000000;stroke-width:0.08233748;stroke-linejoin:round;stroke-miterlimit:4;stroke-dasharray:none;stroke-opacity:1"
       d="m 107.04079,45.505442 c -0.0199,-0.02756 -0.0573,-0.05029 -0.0833,-0.05052 -0.026,-2.2e-4 0.0101,-0.03816 0.0802,-0.0843 0.07,-0.04615 0.13159,-0.07903 0.13676,-0.07307 0.0162,0.0186 -0.0553,0.258001 -0.077,0.258001 -0.0113,0 -0.0368,-0.02254 -0.0567,-0.05011 z"
       id="path4844"
       inkscape:connector-curvature="0" />
    <path
       style="opacity:0.28300003;fill:#280b0b;fill-opacity:1;fill-rule:evenodd;stroke:#000000;stroke-width:0.08233748;stroke-linejoin:round;stroke-miterlimit:4;stroke-dasharray:none;stroke-opacity:1"
       d="m 107.04079,45.505442 c -0.0199,-0.02756 -0.0573,-0.05029 -0.0833,-0.05052 -0.026,-2.2e-4 0.0101,-0.03816 0.0802,-0.0843 0.07,-0.04615 0.13159,-0.07903 0.13676,-0.07307 0.0162,0.0186 -0.0553,0.258001 -0.077,0.258001 -0.0113,0 -0.0368,-0.02254 -0.0567,-0.05011 z m 0.058,-0.08352 c 0,-0.01839 -0.006,-0.03341 -0.0128,-0.03341 -0.007,0 -0.0208,0.01503 -0.0307,0.03341 -0.01,0.01836 -0.004,0.03341 0.0128,0.03341 0.0169,0 0.0307,-0.01503 0.0307,-0.03341 z"
       id="path4846"
       inkscape:connector-curvature="0" />
    <path
       style="opacity:0.28300003;fill:#280b0b;fill-opacity:1;fill-rule:evenodd;stroke:#000000;stroke-width:0.08233748;stroke-linejoin:round;stroke-miterlimit:4;stroke-dasharray:none;stroke-opacity:1"
       d="m 107.05657,45.523773 c -0.0296,-0.03764 -0.0746,-0.06862 -0.1,-0.06885 -0.0254,-2.2e-4 0.0111,-0.03816 0.0811,-0.0843 0.07,-0.04615 0.13145,-0.07919 0.13645,-0.07343 0.005,0.0058 -0.007,0.07449 -0.0274,0.152746 -0.0363,0.141508 -0.0367,0.14191 -0.0902,0.07384 z"
       id="path4848"
       inkscape:connector-curvature="0" />
    <path
       style="opacity:0.28300003;fill:#280b0b;fill-opacity:1;fill-rule:evenodd;stroke:#000000;stroke-width:0.08233748;stroke-linejoin:round;stroke-miterlimit:4;stroke-dasharray:none;stroke-opacity:1"
       d="m 107.06978,45.553943 c 0,-0.01926 -0.0424,-0.05626 -0.0942,-0.08221 -0.0518,-0.02596 -0.0744,-0.04778 -0.0502,-0.0485 0.0242,-7.93e-4 0.0947,-0.041 0.15664,-0.08951 l 0.11265,-0.08821 -0.0196,0.07985 c -0.0108,0.04392 -0.0275,0.121197 -0.0371,0.171728 -0.0166,0.08756 -0.0682,0.130563 -0.0682,0.05685 z m 0.029,-0.132022 c 0,-0.01839 -0.006,-0.03341 -0.0128,-0.03341 -0.007,0 -0.0208,0.01503 -0.0307,0.03341 -0.01,0.01836 -0.004,0.03341 0.0128,0.03341 0.0169,0 0.0307,-0.01503 0.0307,-0.03341 z"
       id="path4850"
       inkscape:connector-curvature="0" />
    <path
       style="opacity:0.28300003;fill:#280b0b;fill-opacity:1;fill-rule:evenodd;stroke:#000000;stroke-width:0.08233748;stroke-linejoin:round;stroke-miterlimit:4;stroke-dasharray:none;stroke-opacity:1"
       d="m 104.04426,51.612756 c -0.0102,-0.01175 -0.0185,-0.04972 -0.0185,-0.08438 0,-0.03466 -0.0978,-0.247899 -0.21743,-0.473866 -0.11959,-0.225968 -0.21744,-0.422175 -0.21744,-0.436013 0,-0.07071 1.40747,-2.766779 1.8168,-3.480167 0.11728,-0.204396 0.27506,-0.438082 0.35062,-0.519301 0.1325,-0.142428 0.52993,-0.44305 0.78036,-0.59028 0.0666,-0.03914 0.12972,-0.102624 0.14031,-0.141065 0.0106,-0.03844 0.0268,-0.06121 0.036,-0.0506 0.009,0.01061 0.0407,-0.0057 0.07,-0.03625 0.0293,-0.03055 0.0626,-0.0448 0.074,-0.03167 0.0114,0.01312 0.007,0.03434 -0.01,0.04712 -0.0275,0.02114 -0.0856,0.223065 -0.11238,0.390737 -0.006,0.03675 -0.0133,0.07057 -0.0165,0.07517 -0.003,0.0046 -0.008,0.01963 -0.01,0.03341 -0.002,0.01378 -0.0123,0.04009 -0.0223,0.05847 -0.031,0.05678 -0.10917,0.384199 -0.0917,0.384199 0.009,0 2.2e-4,0.02254 -0.0196,0.05011 -0.0199,0.02756 -0.0264,0.05011 -0.0145,0.05011 0.0119,0 0.005,0.02254 -0.0145,0.05011 -0.0199,0.02756 -0.0264,0.05011 -0.0145,0.05011 0.0119,0 0.008,0.01879 -0.008,0.04176 -0.0231,0.0331 -0.16363,0.522335 -0.19431,0.676526 -0.004,0.01839 -0.0199,0.07099 -0.036,0.11693 -0.0162,0.04594 -0.0783,0.265219 -0.13817,0.487291 l -0.1088,0.403771 -0.59105,0.874683 c -0.32508,0.481076 -0.59106,0.881107 -0.59106,0.888958 0,0.0079 -0.0456,0.07149 -0.10133,0.141417 -0.0557,0.06993 -0.10139,0.13758 -0.10147,0.150339 -7e-5,0.01275 -0.0457,0.08041 -0.10147,0.150338 -0.0557,0.06993 -0.10139,0.142317 -0.10147,0.160867 -7e-5,0.01855 -0.0262,0.0525 -0.0581,0.07545 -0.0319,0.02294 -0.058,0.06054 -0.058,0.08352 0,0.02299 -0.0261,0.06057 -0.058,0.08352 -0.0319,0.02294 -0.058,0.05823 -0.058,0.0784 0,0.02016 -0.0327,0.06635 -0.0728,0.102619 -0.04,0.03627 -0.0659,0.07874 -0.0575,0.09437 0.0188,0.03502 -0.0285,0.07281 -0.0541,0.04327 z"
       id="path4852"
       inkscape:connector-curvature="0" />
    <path
       style="opacity:0.28300003;fill:#280b0b;fill-opacity:1;fill-rule:evenodd;stroke:#000000;stroke-width:0.33406618;stroke-linejoin:round;stroke-miterlimit:4;stroke-dasharray:none;stroke-opacity:1"
       d=""
       id="path4854"
       inkscape:connector-curvature="0"
       transform="matrix(0.26458333,0,0,0.26458333,0,17.6)" />
    <path
       style="opacity:0.28300003;fill:#280b0b;fill-opacity:1;fill-rule:evenodd;stroke:#000000;stroke-width:0.08233748;stroke-linejoin:round;stroke-miterlimit:4;stroke-dasharray:none;stroke-opacity:1"
       d="m 103.97456,51.360632 c -0.0466,-0.09664 -0.14543,-0.295984 -0.21954,-0.442981 -0.0741,-0.147 -0.13484,-0.287991 -0.13496,-0.313315 -4.6e-4,-0.09572 1.61595,-3.175222 1.93769,-3.691604 0.17562,-0.281874 0.31034,-0.4083 0.78726,-0.738767 0.15148,-0.104963 0.30471,-0.221956 0.34053,-0.259985 0.0358,-0.03803 0.072,-0.0612 0.0804,-0.0515 0.0192,0.02212 -0.0533,0.346546 -0.1306,0.584687 -0.0321,0.09898 -0.0584,0.209677 -0.0584,0.245986 0,0.03631 -0.0127,0.09212 -0.0282,0.124029 -0.0302,0.06196 -0.0678,0.192093 -0.35037,1.210611 l -0.18072,0.651471 -0.44079,0.65147 c -0.24243,0.358307 -0.51123,0.758867 -0.59731,0.890132 -0.28011,0.427101 -0.86524,1.276369 -0.89303,1.296168 -0.0149,0.01061 -0.0653,-0.05977 -0.11191,-0.156406 z"
       id="path4856"
       inkscape:connector-curvature="0" />
    <path
       style="opacity:0.28300003;fill:#280b0b;fill-opacity:1;fill-rule:evenodd;stroke:#000000;stroke-width:0.08233748;stroke-linejoin:round;stroke-miterlimit:4;stroke-dasharray:none;stroke-opacity:1"
       d="m 105.12738,47.263342 c 0,-0.01839 0.013,-0.0427 0.029,-0.05406 0.016,-0.01135 0.029,-0.0056 0.029,0.01275 0,0.01839 -0.013,0.0427 -0.029,0.05406 -0.0159,0.01135 -0.029,0.0056 -0.029,-0.01275 z"
       id="path4858"
       inkscape:connector-curvature="0" />
    <path
       style="opacity:0.28300003;fill:#280b0b;fill-opacity:1;fill-rule:evenodd;stroke:#000000;stroke-width:0.08233748;stroke-linejoin:round;stroke-miterlimit:4;stroke-dasharray:none;stroke-opacity:1"
       d="m 105.09839,47.192582 c 0,-0.01839 0.0138,-0.03341 0.0307,-0.03341 0.0169,0 0.0226,0.01503 0.0128,0.03341 -0.01,0.01839 -0.0237,0.03341 -0.0307,0.03341 -0.007,0 -0.0128,-0.01503 -0.0128,-0.03341 z"
       id="path4860"
       inkscape:connector-curvature="0" />
    <path
       style="opacity:0.28300003;fill:#280b0b;fill-opacity:1;fill-rule:evenodd;stroke:#000000;stroke-width:0.08233748;stroke-linejoin:round;stroke-miterlimit:4;stroke-dasharray:none;stroke-opacity:1"
       d="m 105.09839,47.192582 c 0,-0.01839 0.0138,-0.03341 0.0307,-0.03341 0.0169,0 0.0226,0.01503 0.0128,0.03341 -0.01,0.01839 -0.0237,0.03341 -0.0307,0.03341 -0.007,0 -0.0128,-0.01503 -0.0128,-0.03341 z"
       id="path4862"
       inkscape:connector-curvature="0" />
    <path
       style="opacity:0.28300003;fill:#280b0b;fill-opacity:1;fill-rule:evenodd;stroke:#000000;stroke-width:0.08233748;stroke-linejoin:round;stroke-miterlimit:4;stroke-dasharray:none;stroke-opacity:1"
       d="m 103.97371,51.626557 c -0.0352,-0.04315 -0.064,-0.09107 -0.064,-0.106482 0,-0.01543 -0.0978,-0.211823 -0.21743,-0.436454 -0.11959,-0.224629 -0.21743,-0.43261 -0.21743,-0.462179 0,-0.0663 0.54864,-1.150964 1.16827,-2.30967 0.25547,-0.477745 0.48422,-0.913728 0.50833,-0.968851 0.0241,-0.05513 0.0524,-0.107744 0.0629,-0.11693 0.0105,-0.0092 0.088,-0.135051 0.17224,-0.279697 0.23461,-0.402915 0.33036,-0.506026 0.70935,-0.763881 0.19276,-0.131146 0.37656,-0.264006 0.40845,-0.295248 0.0859,-0.08418 0.29357,-0.197975 0.36123,-0.197975 0.0377,0 0.0591,0.02188 0.0591,0.06047 0,0.0711 -0.18463,0.762709 -0.54966,2.059038 l -0.26287,0.933497 -0.20149,0.302623 c -0.86252,1.295431 -1.79165,2.642097 -1.82855,2.650288 -0.0245,0.0055 -0.0734,-0.0254 -0.10855,-0.06855 z m 0.21412,-0.316958 c 0.15085,-0.20982 1.14249,-1.683713 1.14249,-1.698098 0,-0.0074 -0.26418,-0.01341 -0.58707,-0.01333 l -0.58707,1.32e-4 -0.23918,0.47898 c -0.13155,0.263454 -0.23917,0.502637 -0.23917,0.531538 0,0.06174 0.37079,0.82696 0.40028,0.826076 0.0111,-2.64e-4 0.0604,-0.05671 0.10972,-0.125282 z"
       id="path4864"
       inkscape:connector-curvature="0" />
    <path
       style="opacity:0.28300003;fill:#280b0b;fill-opacity:1;fill-rule:evenodd;stroke:#000000;stroke-width:0.08233748;stroke-linejoin:round;stroke-miterlimit:4;stroke-dasharray:none;stroke-opacity:1"
       d="m 104.0046,51.598241 c -0.0243,-0.02799 -0.0239,-0.05405 0.001,-0.101211 0.0286,-0.05316 0.0166,-0.100134 -0.0737,-0.288039 -0.0593,-0.123489 -0.12289,-0.220149 -0.14127,-0.214804 -0.0198,0.0057 -0.0262,-0.01199 -0.0157,-0.0435 0.0102,-0.03068 0.006,-0.04461 -0.0108,-0.03289 -0.0157,0.01116 -0.0437,-0.0181 -0.0623,-0.06508 -0.0186,-0.04697 -0.0557,-0.0854 -0.0824,-0.0854 -0.0795,0 -0.1167,-0.137121 -0.0669,-0.246677 0.0233,-0.05133 0.049,-0.08576 0.057,-0.07652 0.008,0.0092 -9.2e-4,0.04997 -0.0197,0.09051 -0.0237,0.05108 -0.0243,0.06664 -0.002,0.05068 0.0178,-0.01267 0.0641,-0.09341 0.10301,-0.179427 0.0389,-0.08602 0.0717,-0.133842 0.073,-0.106281 0.001,0.03113 0.0173,0.0191 0.0417,-0.03173 0.0216,-0.04501 0.0326,-0.102002 0.0244,-0.126648 -0.008,-0.02463 -7e-5,-0.04044 0.0181,-0.03509 0.0182,0.0053 0.073,-0.06921 0.12191,-0.165677 l 0.0889,-0.175395 h -0.0894 c -0.1014,0 -0.10136,6.7e-5 -0.0557,-0.115361 0.0241,-0.06102 0.0561,-0.08509 0.11301,-0.08509 0.073,0 0.12312,-0.08265 0.62326,-1.027316 0.67825,-1.281092 0.8886,-1.651649 1.05541,-1.859227 0.0775,-0.09647 0.1056,-0.147963 0.0684,-0.125341 -0.0348,0.02111 -0.13132,0.143906 -0.21453,0.27287 -0.0832,0.128965 -0.1573,0.227578 -0.16462,0.219141 -0.007,-0.0084 0.0132,-0.05824 0.0456,-0.110675 0.0324,-0.05244 0.0566,-0.124331 0.0539,-0.159766 -0.003,-0.03892 0.0134,-0.06477 0.0414,-0.06528 0.0255,-5.3e-4 0.081,-0.04817 0.12328,-0.106 0.0828,-0.113221 0.35925,-0.332121 0.38377,-0.303864 0.008,0.0094 -0.0314,0.0502 -0.0881,0.09054 -0.0566,0.04035 -0.10299,0.08583 -0.10299,0.101071 0,0.01524 0.0876,-0.04002 0.19478,-0.122801 0.10713,-0.08279 0.28858,-0.209841 0.40322,-0.282347 0.11464,-0.07251 0.21549,-0.153012 0.22411,-0.178901 0.0109,-0.03261 0.001,-0.04072 -0.0311,-0.02638 -0.0326,0.01445 -0.04,0.008 -0.0242,-0.02133 0.0124,-0.0231 0.0472,-0.03457 0.0773,-0.0255 0.0301,0.0091 0.0483,0.0044 0.0404,-0.01029 -0.0135,-0.02521 0.0491,-0.0672 0.10026,-0.0672 0.0128,0 0.0301,0.03007 0.0384,0.06682 0.008,0.03675 0.005,0.06682 -0.008,0.06682 -0.0129,0 -0.039,0.07514 -0.0581,0.166968 -0.0191,0.09183 -0.0453,0.159464 -0.0582,0.150294 -0.0129,-0.0092 -0.016,0.01577 -0.007,0.05541 0.0122,0.05371 0.007,0.06518 -0.0217,0.045 -0.0263,-0.01876 -0.0311,-0.01413 -0.0154,0.01508 0.0292,0.0545 -0.0714,0.439989 -0.10804,0.413891 -0.0167,-0.01191 -0.0196,0.01013 -0.007,0.05539 0.015,0.05461 0.0111,0.06832 -0.0145,0.05011 -0.0256,-0.0182 -0.0295,-0.0045 -0.0145,0.05012 0.0154,0.05592 0.0113,0.06851 -0.0159,0.04913 -0.0249,-0.01773 -0.0294,-0.01257 -0.014,0.01611 0.0263,0.04912 -0.0696,0.441294 -0.10223,0.418029 -0.0121,-0.0086 -0.0146,0.01677 -0.006,0.05643 0.0105,0.04619 0.005,0.06419 -0.0145,0.05011 -0.0198,-0.01408 -0.025,0.0039 -0.0145,0.05011 0.0105,0.04619 0.005,0.06419 -0.0145,0.05011 -0.0198,-0.01408 -0.025,0.0039 -0.0145,0.05011 0.0105,0.04619 0.005,0.06419 -0.0145,0.05011 -0.0198,-0.01408 -0.025,0.0039 -0.0145,0.05011 0.0105,0.04619 0.005,0.0642 -0.0145,0.05011 -0.0198,-0.01408 -0.025,0.0039 -0.0145,0.05011 0.0111,0.04903 0.006,0.06452 -0.0169,0.04842 -0.0215,-0.01532 -0.0272,-0.0055 -0.0161,0.02789 0.0185,0.05553 -0.0738,0.386231 -0.10781,0.386231 -0.0113,0 -0.0132,0.03242 -0.004,0.07204 0.0105,0.04616 0.005,0.06415 -0.0145,0.05007 -0.0198,-0.01408 -0.025,0.0039 -0.0145,0.05011 0.0105,0.04619 0.005,0.0642 -0.0145,0.05011 -0.0198,-0.01408 -0.025,0.0039 -0.0145,0.05011 0.0105,0.04619 0.005,0.06419 -0.0145,0.05011 -0.0195,-0.01392 -0.0252,0.0031 -0.0154,0.04631 0.0106,0.04664 0.003,0.06519 -0.0244,0.05851 -0.0231,-0.0056 -0.0367,0.01307 -0.0323,0.04424 0.007,0.05214 -0.0345,0.112062 -0.0946,0.13525 -0.016,0.0062 -0.0253,0.02405 -0.0207,0.03977 0.0122,0.04222 -0.0542,0.123947 -0.0837,0.102957 -0.014,-0.0099 -0.0184,0.0029 -0.01,0.02842 0.0153,0.04586 -0.0322,0.112474 -0.0886,0.124518 -0.0159,0.0034 -0.0253,0.0213 -0.0207,0.03977 0.0124,0.05059 -0.054,0.129103 -0.0885,0.104542 -0.0179,-0.01275 -0.0215,-0.0052 -0.009,0.01855 0.0244,0.04547 -0.0356,0.145494 -0.0718,0.119716 -0.013,-0.0093 -0.0331,7.94e-4 -0.0447,0.02222 -0.0141,0.02622 -0.008,0.0301 0.0174,0.01177 0.0276,-0.01963 0.0334,-0.01228 0.0206,0.02609 -0.01,0.02939 -0.002,0.06074 0.0168,0.06966 0.019,0.0089 -0.009,0.01741 -0.0613,0.01887 -0.0588,0.0016 -0.0887,0.01614 -0.0772,0.03751 0.0224,0.04173 -0.0407,0.138663 -0.0746,0.114554 -0.013,-0.0093 -0.0331,7.94e-4 -0.0447,0.02222 -0.0131,0.02442 -0.008,0.03017 0.0125,0.01527 0.0466,-0.03322 0.0421,0.03051 -0.005,0.07595 -0.0485,0.04642 -0.0785,0.01585 -0.0563,-0.05735 0.022,-0.07256 -0.005,-0.03962 -0.19024,0.234579 -0.083,0.122627 -0.1473,0.242216 -0.14291,0.265751 0.004,0.02352 -0.007,0.04347 -0.0258,0.04431 -0.0186,7.93e-4 -0.0447,0.01521 -0.058,0.03193 -0.0139,0.01749 -0.01,0.0208 0.0101,0.0078 0.041,-0.02709 0.0784,0.03083 0.0519,0.08033 -0.0131,0.02439 -0.03,0.02434 -0.0557,-2.35e-4 -0.0281,-0.02686 -0.11316,0.07534 -0.35682,0.428662 -0.22304,0.323413 -0.30133,0.458319 -0.2585,0.445413 0.0539,-0.01622 0.0496,-0.0013 -0.0344,0.120959 -0.10299,0.149855 -0.11969,0.159848 -0.17009,0.10178 z"
       id="path4866"
       inkscape:connector-curvature="0" />
    <path
       style="opacity:0.28300003;fill:#280b0b;fill-opacity:1;fill-rule:evenodd;stroke:#000000;stroke-width:0.08233748;stroke-linejoin:round;stroke-miterlimit:4;stroke-dasharray:none;stroke-opacity:1"
       d="m 103.9689,51.63737 c -0.0485,-0.0598 -0.0881,-0.121489 -0.0881,-0.137086 0,-0.01561 -0.0888,-0.198175 -0.19738,-0.405725 -0.10856,-0.207547 -0.2063,-0.404588 -0.2172,-0.437864 -0.0179,-0.05452 0.2247,-0.597832 0.45773,-1.025279 0.29933,-0.549066 1.20347,-2.275173 1.20347,-2.297568 0,-0.01564 0.0236,-0.05759 0.0523,-0.09321 0.0288,-0.03562 0.12135,-0.188786 0.20572,-0.340368 0.19543,-0.351145 0.29991,-0.453972 0.86397,-0.850305 0.606,-0.425807 0.67543,-0.454707 0.67543,-0.281151 0,0.08124 -0.27833,1.134734 -0.60222,2.279459 l -0.19958,0.705353 -0.24415,0.361868 c -0.13429,0.199027 -0.27025,0.402854 -0.30214,0.452953 -0.21126,0.331878 -1.36075,2.002147 -1.4321,2.080927 l -0.0876,0.09672 z m 0.49712,-0.79489 c 0.55635,-0.816422 0.76346,-1.123921 0.78756,-1.169302 0.0174,-0.03284 -0.0953,-0.04176 -0.52756,-0.04176 h -0.54974 l -0.21837,0.442664 c -0.12011,0.243466 -0.22706,0.468727 -0.23766,0.500581 -0.0199,0.05968 0.3163,0.794006 0.36348,0.794006 0.013,0 0.18508,-0.236783 0.38229,-0.526187 z m 1.22071,-1.713468 0.31292,-0.466257 0.31622,-1.137095 c 0.35152,-1.263988 0.44121,-1.611894 0.41156,-1.596384 -0.011,0.0058 -0.0722,0.0527 -0.136,0.104296 -0.0638,0.0516 -0.25295,0.191886 -0.42037,0.311751 -0.38594,0.276312 -0.42104,0.315804 -0.69365,0.780441 -0.19927,0.339622 -1.18536,2.168393 -1.27414,2.362957 l -0.034,0.07446 0.57327,0.0098 c 0.31529,0.0054 0.58631,0.01262 0.60225,0.01603 0.0159,0.0034 0.16981,-0.203581 0.34192,-0.460023 z"
       id="path4868"
       inkscape:connector-curvature="0" />
    <ellipse
       style="opacity:0.28300003;fill:#280b0b;fill-opacity:1;fill-rule:evenodd;stroke:#000000;stroke-width:0.69999999;stroke-linejoin:round;stroke-miterlimit:4;stroke-dasharray:none;stroke-opacity:1"
       id="path4872"
       cx="116.79678"
       cy="73.696312"
       rx="4.2763124"
       ry="3.6081386" />
    <ellipse
       style="display:inline;opacity:0.28300003;fill:#280b0b;fill-opacity:1;fill-rule:evenodd;stroke:#000000;stroke-width:0.69999999;stroke-linejoin:round;stroke-miterlimit:4;stroke-dasharray:none;stroke-opacity:1"
       id="path4872-7"
       cx="91.673447"
       cy="73.562675"
       rx="4.2763124"
       ry="3.6081386" />
    <ellipse
       style="display:inline;opacity:0.28300003;fill:#280b0b;fill-opacity:1;fill-rule:evenodd;stroke:#000000;stroke-width:0.41790485;stroke-linejoin:round;stroke-miterlimit:4;stroke-dasharray:none;stroke-opacity:1"
       id="path4872-4"
       cx="116.93042"
       cy="73.696304"
       rx="2.4128385"
       ry="2.2792037" />
    <ellipse
       style="display:inline;opacity:0.28300003;fill:#280b0b;fill-opacity:1;fill-rule:evenodd;stroke:#000000;stroke-width:0.41790485;stroke-linejoin:round;stroke-miterlimit:4;stroke-dasharray:none;stroke-opacity:1"
       id="path4872-4-3"
       cx="91.753723"
       cy="73.427086"
       rx="2.4128385"
       ry="2.2792037" />
  </g>
</svg>
