<?xml version="1.0" encoding="UTF-8" standalone="no"?>
<!-- Created with Inkscape (http://www.inkscape.org/) -->

<svg
   xmlns:dc="http://purl.org/dc/elements/1.1/"
   xmlns:cc="http://creativecommons.org/ns#"
   xmlns:rdf="http://www.w3.org/1999/02/22-rdf-syntax-ns#"
   xmlns:svg="http://www.w3.org/2000/svg"
   xmlns="http://www.w3.org/2000/svg"
   xmlns:sodipodi="http://sodipodi.sourceforge.net/DTD/sodipodi-0.dtd"
   xmlns:inkscape="http://www.inkscape.org/namespaces/inkscape"
   width="210mm"
   height="297mm"
   viewBox="0 0 210 297"
   version="1.1"
   id="svg2269"
   inkscape:version="0.92.3 (2405546, 2018-03-11)"
   sodipodi:docname="drawing.svg">
  <defs
     id="defs2263">
    <filter
       inkscape:collect="always"
       style="color-interpolation-filters:sRGB"
       id="filter2862"
       x="-0.034369443"
       width="1.0687389"
       y="-0.34525783"
       height="1.6905157">
      <feGaussianBlur
         inkscape:collect="always"
         stdDeviation="1.1484894"
         id="feGaussianBlur2864" />
    </filter>
    <filter
       inkscape:collect="always"
       style="color-interpolation-filters:sRGB"
       id="filter2914"
       x="-0.015103032"
       width="1.0302061"
       y="-0.11288256"
       height="1.2257651">
      <feGaussianBlur
         inkscape:collect="always"
         stdDeviation="0.60803779"
         id="feGaussianBlur2916" />
    </filter>
    <filter
       inkscape:collect="always"
       style="color-interpolation-filters:sRGB"
       id="filter2956"
       x="-0.050955"
       width="1.10191"
       y="-0.67940005"
       height="2.3588001">
      <feGaussianBlur
         inkscape:collect="always"
         stdDeviation="1.1348933"
         id="feGaussianBlur2958" />
    </filter>
  </defs>
  <sodipodi:namedview
     id="base"
     pagecolor="#ffffff"
     bordercolor="#666666"
     borderopacity="1.0"
     inkscape:pageopacity="0.0"
     inkscape:pageshadow="2"
     inkscape:zoom="1.979899"
     inkscape:cx="370.29033"
     inkscape:cy="138.72389"
     inkscape:document-units="mm"
     inkscape:current-layer="layer1"
     showgrid="false"
     showborder="false"
     inkscape:window-width="1920"
     inkscape:window-height="1017"
     inkscape:window-x="-8"
     inkscape:window-y="-8"
     inkscape:window-maximized="1" />
  <metadata
     id="metadata2266">
    <rdf:RDF>
      <cc:Work
         rdf:about="">
        <dc:format>image/svg+xml</dc:format>
        <dc:type
           rdf:resource="http://purl.org/dc/dcmitype/StillImage" />
        <dc:title></dc:title>
      </cc:Work>
    </rdf:RDF>
  </metadata>
  <g
     inkscape:label="Layer 1"
     inkscape:groupmode="layer"
     id="layer1">
    <g
       id="g3163"
       transform="matrix(0.79095743,0,0,1.024617,259.56955,58.506436)">
      <rect
         transform="scale(1,-1)"
         ry="0.096603192"
         y="-217.08643"
         x="-321.52524"
         height="4.0090427"
         width="53.453907"
         id="rect2922"
         style="opacity:0.85199998;vector-effect:none;fill:#666b53;fill-opacity:0.84705882;fill-rule:evenodd;stroke:none;stroke-width:0.38659874;stroke-linecap:butt;stroke-linejoin:round;stroke-miterlimit:4;stroke-dasharray:none;stroke-dashoffset:0;stroke-opacity:1;filter:url(#filter2956)" />
      <ellipse
         transform="matrix(0.99953888,0.03036491,0.85294184,-0.52200595,0,0)"
         ry="6.6125064"
         rx="25.862125"
         cy="-406.13406"
         cx="51.725189"
         id="path2814"
         style="opacity:0.85199998;fill:#676c53;fill-opacity:1;fill-rule:evenodd;stroke:#000000;stroke-width:0.15238144;stroke-linejoin:round;stroke-miterlimit:4;stroke-dasharray:none;stroke-opacity:1;filter:url(#filter2914)" />
      <ellipse
         transform="matrix(0.99974465,0.02259712,0.9100896,-0.41441153,0,-0.13363476)"
         ry="4.0844655"
         rx="17.041533"
         cy="-505.61514"
         cx="165.73317"
         id="path2814-3"
         style="opacity:0.91399997;fill:#676c53;fill-opacity:1;fill-rule:evenodd;stroke:#000000;stroke-width:0.09721625;stroke-linejoin:round;stroke-miterlimit:4;stroke-dasharray:none;stroke-opacity:1;filter:url(#filter2862)" />
      <path
         transform="matrix(0.81531238,0,0,0.22943697,-54.555483,166.03208)"
         d="m -296.00098,203.32204 c 0.0201,0.58292 -0.77584,0.31468 -0.96885,0.0334 -0.52303,-0.76225 0.15963,-1.7063 0.90204,-1.97112 1.32798,-0.4737 2.65752,0.56651 2.97337,1.83748 0.46352,1.86521 -0.97476,3.62552 -2.77292,3.97564 -2.39666,0.46664 -4.59997,-1.38298 -4.9779,-3.70837 -0.47557,-2.92627 1.79104,-5.57762 4.64381,-5.98016 3.4551,-0.48752 6.5571,2.19898 6.98242,5.57926 0.50122,3.98354 -2.60684,7.53772 -6.5147,7.98467 -4.51177,0.51603 -8.5191,-3.01466 -8.98694,-7.45014 -0.53158,-5.03987 3.42245,-9.50102 8.38559,-9.98919 5.56789,-0.54767 10.48332,3.8302 10.99146,9.32102 0.56412,6.09586 -4.23795,11.46593 -10.25647,11.99372"
         sodipodi:t0="0"
         sodipodi:argument="-17.313229"
         sodipodi:radius="11.633135"
         sodipodi:revolution="3"
         sodipodi:expansion="1"
         sodipodi:cy="203.32204"
         sodipodi:cx="-296.00098"
         id="path2962"
         style="opacity:0.2;fill:#00ffff;fill-rule:evenodd;stroke:#000000;stroke-width:0.26458332"
         sodipodi:type="spiral" />
      <path
         transform="matrix(0.97531736,0,0,0.22943697,-7.5848608,163.36459)"
         d="m -296.00098,203.32204 c 0.0201,0.58292 -0.77584,0.31468 -0.96885,0.0334 -0.52303,-0.76225 0.15963,-1.7063 0.90204,-1.97112 1.32798,-0.4737 2.65752,0.56651 2.97337,1.83748 0.46352,1.86521 -0.97476,3.62552 -2.77292,3.97564 -2.39666,0.46664 -4.59997,-1.38298 -4.9779,-3.70837 -0.47557,-2.92627 1.79104,-5.57762 4.64381,-5.98016 3.4551,-0.48752 6.5571,2.19898 6.98242,5.57926 0.50122,3.98354 -2.60684,7.53772 -6.5147,7.98467 -4.51177,0.51603 -8.5191,-3.01466 -8.98694,-7.45014 -0.53158,-5.03987 3.42245,-9.50102 8.38559,-9.98919 5.56789,-0.54767 10.48332,3.8302 10.99146,9.32102 0.56412,6.09586 -4.23795,11.46593 -10.25647,11.99372"
         sodipodi:t0="0"
         sodipodi:argument="-17.313229"
         sodipodi:radius="11.633135"
         sodipodi:revolution="3"
         sodipodi:expansion="1"
         sodipodi:cy="203.32204"
         sodipodi:cx="-296.00098"
         id="path2962-1"
         style="opacity:0.2;fill:#00ffff;fill-rule:evenodd;stroke:#000000;stroke-width:0.26458332"
         sodipodi:type="spiral" />
      <path
         transform="matrix(1.7227959,0,0,0.22943697,211.79266,155.36212)"
         d="m -296.00098,203.32204 c 0.0201,0.58292 -0.77584,0.31468 -0.96885,0.0334 -0.52303,-0.76225 0.15963,-1.7063 0.90204,-1.97112 1.32798,-0.4737 2.65752,0.56651 2.97337,1.83748 0.46352,1.86521 -0.97476,3.62552 -2.77292,3.97564 -2.39666,0.46664 -4.59997,-1.38298 -4.9779,-3.70837 -0.47557,-2.92627 1.79104,-5.57762 4.64381,-5.98016 3.4551,-0.48752 6.5571,2.19898 6.98242,5.57926 0.50122,3.98354 -2.60684,7.53772 -6.5147,7.98467 -4.51177,0.51603 -8.5191,-3.01466 -8.98694,-7.45014 -0.53158,-5.03987 3.42245,-9.50102 8.38559,-9.98919 5.56789,-0.54767 10.48332,3.8302 10.99146,9.32102 0.56412,6.09586 -4.23795,11.46593 -10.25647,11.99372"
         sodipodi:t0="0"
         sodipodi:argument="-17.313229"
         sodipodi:radius="11.633135"
         sodipodi:revolution="3"
         sodipodi:expansion="1"
         sodipodi:cy="203.32204"
         sodipodi:cx="-296.00098"
         id="path2962-1-0"
         style="opacity:0.2;fill:#00ffff;fill-rule:evenodd;stroke:#000000;stroke-width:0.26458332"
         sodipodi:type="spiral" />
      <path
         transform="matrix(1.4383099,0,0,0.22943697,128.88475,160.69709)"
         d="m -296.00098,203.32204 c 0.0201,0.58292 -0.77584,0.31468 -0.96885,0.0334 -0.52303,-0.76225 0.15963,-1.7063 0.90204,-1.97112 1.32798,-0.4737 2.65752,0.56651 2.97337,1.83748 0.46352,1.86521 -0.97476,3.62552 -2.77292,3.97564 -2.39666,0.46664 -4.59997,-1.38298 -4.9779,-3.70837 -0.47557,-2.92627 1.79104,-5.57762 4.64381,-5.98016 3.4551,-0.48752 6.5571,2.19898 6.98242,5.57926 0.50122,3.98354 -2.60684,7.53772 -6.5147,7.98467 -4.51177,0.51603 -8.5191,-3.01466 -8.98694,-7.45014 -0.53158,-5.03987 3.42245,-9.50102 8.38559,-9.98919 5.56789,-0.54767 10.48332,3.8302 10.99146,9.32102 0.56412,6.09586 -4.23795,11.46593 -10.25647,11.99372"
         sodipodi:t0="0"
         sodipodi:argument="-17.313229"
         sodipodi:radius="11.633135"
         sodipodi:revolution="3"
         sodipodi:expansion="1"
         sodipodi:cy="203.32204"
         sodipodi:cx="-296.00098"
         id="path2962-1-0-5"
         style="opacity:0.2;fill:#00ffff;fill-rule:evenodd;stroke:#000000;stroke-width:0.26458332"
         sodipodi:type="spiral" />
      <path
         transform="matrix(1.5204462,0,0,0.22943697,152.58763,158.02961)"
         d="m -296.00098,203.32204 c 0.0201,0.58292 -0.77584,0.31468 -0.96885,0.0334 -0.52303,-0.76225 0.15963,-1.7063 0.90204,-1.97112 1.32798,-0.4737 2.65752,0.56651 2.97337,1.83748 0.46352,1.86521 -0.97476,3.62552 -2.77292,3.97564 -2.39666,0.46664 -4.59997,-1.38298 -4.9779,-3.70837 -0.47557,-2.92627 1.79104,-5.57762 4.64381,-5.98016 3.4551,-0.48752 6.5571,2.19898 6.98242,5.57926 0.50122,3.98354 -2.60684,7.53772 -6.5147,7.98467 -4.51177,0.51603 -8.5191,-3.01466 -8.98694,-7.45014 -0.53158,-5.03987 3.42245,-9.50102 8.38559,-9.98919 5.56789,-0.54767 10.48332,3.8302 10.99146,9.32102 0.56412,6.09586 -4.23795,11.46593 -10.25647,11.99372"
         sodipodi:t0="0"
         sodipodi:argument="-17.313229"
         sodipodi:radius="11.633135"
         sodipodi:revolution="3"
         sodipodi:expansion="1"
         sodipodi:cy="203.32204"
         sodipodi:cx="-296.00098"
         id="path2962-1-0-1-56"
         style="opacity:0.2;fill:#00ffff;fill-rule:evenodd;stroke:#000000;stroke-width:0.26458332"
         sodipodi:type="spiral" />
      <path
         transform="matrix(1.8900816,0,0,0.22943697,261.153,152.36054)"
         d="m -296.00098,203.32204 c 0.0201,0.58292 -0.77584,0.31468 -0.96885,0.0334 -0.52303,-0.76225 0.15963,-1.7063 0.90204,-1.97112 1.32798,-0.4737 2.65752,0.56651 2.97337,1.83748 0.46352,1.86521 -0.97476,3.62552 -2.77292,3.97564 -2.39666,0.46664 -4.59997,-1.38298 -4.9779,-3.70837 -0.47557,-2.92627 1.79104,-5.57762 4.64381,-5.98016 3.4551,-0.48752 6.5571,2.19898 6.98242,5.57926 0.50122,3.98354 -2.60684,7.53772 -6.5147,7.98467 -4.51177,0.51603 -8.5191,-3.01466 -8.98694,-7.45014 -0.53158,-5.03987 3.42245,-9.50102 8.38559,-9.98919 5.56789,-0.54767 10.48332,3.8302 10.99146,9.32102 0.56412,6.09586 -4.23795,11.46593 -10.25647,11.99372"
         sodipodi:t0="0"
         sodipodi:argument="-17.313229"
         sodipodi:radius="11.633135"
         sodipodi:revolution="3"
         sodipodi:expansion="1"
         sodipodi:cy="203.32204"
         sodipodi:cx="-296.00098"
         id="path2962-1-0-4"
         style="opacity:0.2;fill:#00ffff;fill-rule:evenodd;stroke:#000000;stroke-width:0.26458332"
         sodipodi:type="spiral" />
      <path
         transform="matrix(1.9750454,0,0,0.22943697,285.97829,149.96033)"
         d="m -296.00098,203.32204 c 0.0201,0.58292 -0.77584,0.31468 -0.96885,0.0334 -0.52303,-0.76225 0.15963,-1.7063 0.90204,-1.97112 1.32798,-0.4737 2.65752,0.56651 2.97337,1.83748 0.46352,1.86521 -0.97476,3.62552 -2.77292,3.97564 -2.39666,0.46664 -4.59997,-1.38298 -4.9779,-3.70837 -0.47557,-2.92627 1.79104,-5.57762 4.64381,-5.98016 3.4551,-0.48752 6.5571,2.19898 6.98242,5.57926 0.50122,3.98354 -2.60684,7.53772 -6.5147,7.98467 -4.51177,0.51603 -8.5191,-3.01466 -8.98694,-7.45014 -0.53158,-5.03987 3.42245,-9.50102 8.38559,-9.98919 5.56789,-0.54767 10.48332,3.8302 10.99146,9.32102 0.56412,6.09586 -4.23795,11.46593 -10.25647,11.99372"
         sodipodi:t0="0"
         sodipodi:argument="-17.313229"
         sodipodi:radius="11.633135"
         sodipodi:revolution="3"
         sodipodi:expansion="1"
         sodipodi:cy="203.32204"
         sodipodi:cx="-296.00098"
         id="path2962-1-0-7"
         style="opacity:0.2;fill:#00ffff;fill-rule:evenodd;stroke:#000000;stroke-width:0.26458332"
         sodipodi:type="spiral" />
      <path
         transform="matrix(2.1225753,0,0,0.22943697,329.54165,147.35966)"
         d="m -296.00098,203.32204 c 0.0201,0.58292 -0.77584,0.31468 -0.96885,0.0334 -0.52303,-0.76225 0.15963,-1.7063 0.90204,-1.97112 1.32798,-0.4737 2.65752,0.56651 2.97337,1.83748 0.46352,1.86521 -0.97476,3.62552 -2.77292,3.97564 -2.39666,0.46664 -4.59997,-1.38298 -4.9779,-3.70837 -0.47557,-2.92627 1.79104,-5.57762 4.64381,-5.98016 3.4551,-0.48752 6.5571,2.19898 6.98242,5.57926 0.50122,3.98354 -2.60684,7.53772 -6.5147,7.98467 -4.51177,0.51603 -8.5191,-3.01466 -8.98694,-7.45014 -0.53158,-5.03987 3.42245,-9.50102 8.38559,-9.98919 5.56789,-0.54767 10.48332,3.8302 10.99146,9.32102 0.56412,6.09586 -4.23795,11.46593 -10.25647,11.99372"
         sodipodi:t0="0"
         sodipodi:argument="-17.313229"
         sodipodi:radius="11.633135"
         sodipodi:revolution="3"
         sodipodi:expansion="1"
         sodipodi:cy="203.32204"
         sodipodi:cx="-296.00098"
         id="path2962-1-0-2"
         style="opacity:0.2;fill:#00ffff;fill-rule:evenodd;stroke:#000000;stroke-width:0.26458332"
         sodipodi:type="spiral" />
      <path
         transform="matrix(2.2388721,0,0,0.22943697,363.8614,144.69217)"
         d="m -296.00098,203.32204 c 0.0201,0.58292 -0.77584,0.31468 -0.96885,0.0334 -0.52303,-0.76225 0.15963,-1.7063 0.90204,-1.97112 1.32798,-0.4737 2.65752,0.56651 2.97337,1.83748 0.46352,1.86521 -0.97476,3.62552 -2.77292,3.97564 -2.39666,0.46664 -4.59997,-1.38298 -4.9779,-3.70837 -0.47557,-2.92627 1.79104,-5.57762 4.64381,-5.98016 3.4551,-0.48752 6.5571,2.19898 6.98242,5.57926 0.50122,3.98354 -2.60684,7.53772 -6.5147,7.98467 -4.51177,0.51603 -8.5191,-3.01466 -8.98694,-7.45014 -0.53158,-5.03987 3.42245,-9.50102 8.38559,-9.98919 5.56789,-0.54767 10.48332,3.8302 10.99146,9.32102 0.56412,6.09586 -4.23795,11.46593 -10.25647,11.99372"
         sodipodi:t0="0"
         sodipodi:argument="-17.313229"
         sodipodi:radius="11.633135"
         sodipodi:revolution="3"
         sodipodi:expansion="1"
         sodipodi:cy="203.32204"
         sodipodi:cx="-296.00098"
         id="path2962-1-0-40"
         style="opacity:0.2;fill:#00ffff;fill-rule:evenodd;stroke:#000000;stroke-width:0.26458332"
         sodipodi:type="spiral" />
      <path
         transform="matrix(2.4007165,0,0,0.22943697,411.70932,142.02468)"
         d="m -296.00098,203.32204 c 0.0201,0.58292 -0.77584,0.31468 -0.96885,0.0334 -0.52303,-0.76225 0.15963,-1.7063 0.90204,-1.97112 1.32798,-0.4737 2.65752,0.56651 2.97337,1.83748 0.46352,1.86521 -0.97476,3.62552 -2.77292,3.97564 -2.39666,0.46664 -4.59997,-1.38298 -4.9779,-3.70837 -0.47557,-2.92627 1.79104,-5.57762 4.64381,-5.98016 3.4551,-0.48752 6.5571,2.19898 6.98242,5.57926 0.50122,3.98354 -2.60684,7.53772 -6.5147,7.98467 -4.51177,0.51603 -8.5191,-3.01466 -8.98694,-7.45014 -0.53158,-5.03987 3.42245,-9.50102 8.38559,-9.98919 5.56789,-0.54767 10.48332,3.8302 10.99146,9.32102 0.56412,6.09586 -4.23795,11.46593 -10.25647,11.99372"
         sodipodi:t0="0"
         sodipodi:argument="-17.313229"
         sodipodi:radius="11.633135"
         sodipodi:revolution="3"
         sodipodi:expansion="1"
         sodipodi:cy="203.32204"
         sodipodi:cx="-296.00098"
         id="path2962-1-0-42"
         style="opacity:0.2;fill:#00ffff;fill-rule:evenodd;stroke:#000000;stroke-width:0.26458332"
         sodipodi:type="spiral" />
      <path
         transform="matrix(2.5198961,0,0,0.22943697,446.69288,139.42401)"
         d="m -296.00098,203.32204 c 0.0201,0.58292 -0.77584,0.31468 -0.96885,0.0334 -0.52303,-0.76225 0.15963,-1.7063 0.90204,-1.97112 1.32798,-0.4737 2.65752,0.56651 2.97337,1.83748 0.46352,1.86521 -0.97476,3.62552 -2.77292,3.97564 -2.39666,0.46664 -4.59997,-1.38298 -4.9779,-3.70837 -0.47557,-2.92627 1.79104,-5.57762 4.64381,-5.98016 3.4551,-0.48752 6.5571,2.19898 6.98242,5.57926 0.50122,3.98354 -2.60684,7.53772 -6.5147,7.98467 -4.51177,0.51603 -8.5191,-3.01466 -8.98694,-7.45014 -0.53158,-5.03987 3.42245,-9.50102 8.38559,-9.98919 5.56789,-0.54767 10.48332,3.8302 10.99146,9.32102 0.56412,6.09586 -4.23795,11.46593 -10.25647,11.99372"
         sodipodi:t0="0"
         sodipodi:argument="-17.313229"
         sodipodi:radius="11.633135"
         sodipodi:revolution="3"
         sodipodi:expansion="1"
         sodipodi:cy="203.32204"
         sodipodi:cx="-296.00098"
         id="path2962-1-0-1"
         style="opacity:0.2;fill:#00ffff;fill-rule:evenodd;stroke:#000000;stroke-width:0.26458332"
         sodipodi:type="spiral" />
      <path
         transform="matrix(2.7138657,0,0,0.22943697,504.08167,136.6897)"
         d="m -296.00098,203.32204 c 0.0201,0.58292 -0.77584,0.31468 -0.96885,0.0334 -0.52303,-0.76225 0.15963,-1.7063 0.90204,-1.97112 1.32798,-0.4737 2.65752,0.56651 2.97337,1.83748 0.46352,1.86521 -0.97476,3.62552 -2.77292,3.97564 -2.39666,0.46664 -4.59997,-1.38298 -4.9779,-3.70837 -0.47557,-2.92627 1.79104,-5.57762 4.64381,-5.98016 3.4551,-0.48752 6.5571,2.19898 6.98242,5.57926 0.50122,3.98354 -2.60684,7.53772 -6.5147,7.98467 -4.51177,0.51603 -8.5191,-3.01466 -8.98694,-7.45014 -0.53158,-5.03987 3.42245,-9.50102 8.38559,-9.98919 5.56789,-0.54767 10.48332,3.8302 10.99146,9.32102 0.56412,6.09586 -4.23795,11.46593 -10.25647,11.99372"
         sodipodi:t0="0"
         sodipodi:argument="-17.313229"
         sodipodi:radius="11.633135"
         sodipodi:revolution="3"
         sodipodi:expansion="1"
         sodipodi:cy="203.32204"
         sodipodi:cx="-296.00098"
         id="path2962-1-0-46"
         style="opacity:0.2;fill:#00ffff;fill-rule:evenodd;stroke:#000000;stroke-width:0.26458332"
         sodipodi:type="spiral" />
    </g>
  </g>
</svg>
