<?xml version="1.0" encoding="UTF-8" standalone="no"?>
<!-- Created with Inkscape (http://www.inkscape.org/) -->

<svg
   xmlns:osb="http://www.openswatchbook.org/uri/2009/osb"
   xmlns:dc="http://purl.org/dc/elements/1.1/"
   xmlns:cc="http://creativecommons.org/ns#"
   xmlns:rdf="http://www.w3.org/1999/02/22-rdf-syntax-ns#"
   xmlns:svg="http://www.w3.org/2000/svg"
   xmlns="http://www.w3.org/2000/svg"
   xmlns:sodipodi="http://sodipodi.sourceforge.net/DTD/sodipodi-0.dtd"
   xmlns:inkscape="http://www.inkscape.org/namespaces/inkscape"
   width="793.70081"
   height="1122.5197"
   viewBox="0 0 210 297"
   version="1.1"
   id="svg4925"
   inkscape:version="0.92.3 (2405546, 2018-03-11)"
   sodipodi:docname="stick_figure.svg">
  <defs
     id="defs4919">
    <linearGradient
       id="linearGradient5542"
       osb:paint="solid">
      <stop
         style="stop-color:#000000;stop-opacity:1;"
         offset="0"
         id="stop5540" />
    </linearGradient>
  </defs>
  <sodipodi:namedview
     id="base"
     pagecolor="#ffffff"
     bordercolor="#666666"
     borderopacity="1.0"
     inkscape:pageopacity="0.0"
     inkscape:pageshadow="2"
     inkscape:zoom="0.49497475"
     inkscape:cx="-523.4526"
     inkscape:cy="1171.5005"
     inkscape:document-units="mm"
     inkscape:current-layer="layer3"
     showgrid="false"
     units="px"
     inkscape:showpageshadow="false"
     showborder="false"
     inkscape:window-width="1920"
     inkscape:window-height="1017"
     inkscape:window-x="-8"
     inkscape:window-y="-8"
     inkscape:window-maximized="1" />
  <metadata
     id="metadata4922">
    <rdf:RDF>
      <cc:Work
         rdf:about="">
        <dc:format>image/svg+xml</dc:format>
        <dc:type
           rdf:resource="http://purl.org/dc/dcmitype/StillImage" />
        <dc:title></dc:title>
      </cc:Work>
    </rdf:RDF>
  </metadata>
  <g
     inkscape:label="Layer 1"
     inkscape:groupmode="layer"
     id="layer1"
     transform="translate(0,8.392334e-6)">
    <path
       style="fill:none;stroke:#000000;stroke-width:0.26458332px;stroke-linecap:butt;stroke-linejoin:miter;stroke-opacity:1"
       d="m -145.81893,13.620342 c -4.38333,-2.173065 -4.09099,0.591646 -5.29908,1.911213 -3.82496,0.500054 -3.49705,3.893081 -1.70297,6.201846 22.5882,19.766375 34.99662,17.742866 7.00205,-8.113059 z"
       id="path5548-1"
       inkscape:connector-curvature="0"
       sodipodi:nodetypes="cccc" />
    <path
       style="fill:none;stroke:#000000;stroke-width:0.26458332px;stroke-linecap:butt;stroke-linejoin:miter;stroke-opacity:1"
       d="m -187.8817,62.674416 c -0.9532,-6.43381 -3.95428,-8.078421 -9.58845,-3.56524 -15.92091,30.93416 2.73003,36.89149 9.58845,3.56524 z"
       id="path5584-5"
       inkscape:connector-curvature="0"
       sodipodi:nodetypes="ccc" />
    <path
       style="fill:none;stroke:#000000;stroke-width:0.23925547px;stroke-linecap:butt;stroke-linejoin:miter;stroke-opacity:1"
       d="m -200.78496,86.308596 c -5.10834,2.41841 -6.46548,-2.32943 -6.29883,-5.02829 -32.83137,29.426294 -25.61053,60.994414 6.29883,5.02829 z"
       id="path5586-8"
       inkscape:connector-curvature="0"
       sodipodi:nodetypes="ccc" />
    <path
       style="fill:none;stroke:#000000;stroke-width:0.26458332px;stroke-linecap:butt;stroke-linejoin:miter;stroke-opacity:1"
       d="m -178.97758,57.637946 c -5.53477,-3.415971 -8.72604,-2.18025 -8.90412,5.03647 13.40183,32.10589 29.97396,21.67939 8.90412,-5.03647 z"
       id="path5584-4-7"
       inkscape:connector-curvature="0"
       sodipodi:nodetypes="ccc" />
    <path
       style="fill:none;stroke:#000000;stroke-width:0.23925547px;stroke-linecap:butt;stroke-linejoin:miter;stroke-opacity:1"
       d="m -167.16053,82.923256 c -1.85239,5.33972 -6.19142,2.98245 -8.00077,0.973 -1.99742,44.043334 25.58977,61.003124 8.00077,-0.973 z"
       id="path5586-7-8"
       inkscape:connector-curvature="0"
       sodipodi:nodetypes="ccc" />
    <path
       style="fill:none;stroke:#000000;stroke-width:0.26458332px;stroke-linecap:butt;stroke-linejoin:miter;stroke-opacity:1"
       d="m -169.22388,-3.7392156 c 5.8289,2.98335395 12.71223,3.96327295 16.22238,11.352239 0.82644,4.8028696 -0.0789,5.1470206 -4.65853,5.2794316 -5.31599,0.128016 -13.0068,-5.9998056 -18.24559,-9.1481246 -1.13143,-4.73024705 -2.24862,-7.391979 6.68174,-7.483546 z"
       id="path5624-7"
       inkscape:connector-curvature="0"
       sodipodi:nodetypes="ccccc" />
    <path
       style="fill:none;stroke:#000000;stroke-width:0.26458332px;stroke-linecap:butt;stroke-linejoin:miter;stroke-opacity:1"
       d="m -182.63644,4.1485294 c 1.59122,6.3517326 5.38469,12.1783996 2.13309,19.6847376 -3.07147,3.783735 -3.9265,3.328762 -7.04083,-0.03151 -3.59576,-3.917487 -4.04554,-13.74075 -5.12413,-19.7568506 2.81603,-3.96551905 4.08431,-6.558669 10.03187,0.103627 z"
       id="path5624-2-7"
       inkscape:connector-curvature="0"
       sodipodi:nodetypes="ccccc" />
    <path
       style="fill:none;stroke:#000000;stroke-width:0.26458332px;stroke-linecap:butt;stroke-linejoin:miter;stroke-opacity:1"
       d="m -175.20427,21.922054 c -4.38333,-2.173068 -4.09099,0.591646 -5.29908,1.911213 -3.82496,0.500052 -3.49705,3.893084 -1.70297,6.201844 22.5882,19.766383 34.99662,17.742871 7.00205,-8.113057 z"
       id="path5548-5-1"
       inkscape:connector-curvature="0"
       sodipodi:nodetypes="cccc" />
    <path
       style="fill:none;stroke:#000000;stroke-width:0.22931764px;stroke-linecap:butt;stroke-linejoin:miter;stroke-opacity:1"
       d="m -183.33474,-44.679574 c -22.65659,-0.6867 -27.10623,31.341293 -0.63601,34.423104 22.37632,-1.80381 23.506,-34.476264 0.63601,-34.423104 z"
       id="path5662-7"
       inkscape:connector-curvature="0"
       sodipodi:nodetypes="ccc" />
    <path
       style="fill:none;stroke:#000000;stroke-width:0.20845558px;stroke-linecap:butt;stroke-linejoin:miter;stroke-opacity:1"
       d="m -195.67351,4.0449024 c -0.92865,42.4415156 11.8379,99.6160376 19.76789,-0.300572 -7.14779,-21.4564124 -14.55252,-13.040617 -19.76789,0.300572 z"
       id="path5664-1"
       inkscape:connector-curvature="0"
       sodipodi:nodetypes="ccc" />
    <path
       style="fill:none;stroke:#000000;stroke-width:0.26458332px;stroke-linecap:butt;stroke-linejoin:miter;stroke-opacity:1"
       d="m -13.253244,17.362116 c -4.383331,-2.173065 -4.09099,0.591646 -5.29908,1.911213 -3.82496,0.500054 -3.497051,3.893081 -1.70297,6.201846 22.5881985,19.766375 34.996616,17.742866 7.00205,-8.113059 z"
       id="path5548-9"
       inkscape:connector-curvature="0"
       sodipodi:nodetypes="cccc" />
    <path
       style="fill:none;stroke:#000000;stroke-width:0.26458332px;stroke-linecap:butt;stroke-linejoin:miter;stroke-opacity:1"
       d="m -55.316014,66.416189 c -0.953201,-6.43381 -3.95428,-8.078421 -9.588451,-3.56524 -15.920911,30.934161 2.73003,36.891491 9.588451,3.56524 z"
       id="path5584-3"
       inkscape:connector-curvature="0"
       sodipodi:nodetypes="ccc" />
    <path
       style="fill:none;stroke:#000000;stroke-width:0.23925547px;stroke-linecap:butt;stroke-linejoin:miter;stroke-opacity:1"
       d="m -68.219276,90.05037 c -5.10834,2.41841 -6.46548,-2.32943 -6.29883,-5.02829 -32.831374,29.42629 -25.610534,60.99441 6.29883,5.02829 z"
       id="path5586-9"
       inkscape:connector-curvature="0"
       sodipodi:nodetypes="ccc" />
    <path
       style="fill:none;stroke:#000000;stroke-width:0.26458332px;stroke-linecap:butt;stroke-linejoin:miter;stroke-opacity:1"
       d="m -46.411896,61.379719 c -5.534768,-3.415971 -8.72604,-2.18025 -8.904118,5.03647 13.401828,32.105891 29.97396,21.679391 8.904118,-5.03647 z"
       id="path5584-4-9"
       inkscape:connector-curvature="0"
       sodipodi:nodetypes="ccc" />
    <path
       style="fill:none;stroke:#000000;stroke-width:0.23925547px;stroke-linecap:butt;stroke-linejoin:miter;stroke-opacity:1"
       d="m -34.594845,86.66503 c -1.85239,5.33972 -6.191419,2.98245 -8.00077,0.973 -1.997419,44.04333 25.58977,61.00312 8.00077,-0.973 z"
       id="path5586-7-4"
       inkscape:connector-curvature="0"
       sodipodi:nodetypes="ccc" />
    <path
       style="fill:none;stroke:#000000;stroke-width:0.26458332px;stroke-linecap:butt;stroke-linejoin:miter;stroke-opacity:1"
       d="m -36.658195,0.00255776 c 5.8289,2.98335404 12.712231,3.96327304 16.222382,11.35223924 0.826439,4.80287 -0.0789,5.147021 -4.658532,5.279432 -5.31599,0.128016 -13.006801,-5.999806 -18.24559,-9.1481252 -1.13143,-4.730247 -2.24862,-7.39197904 6.68174,-7.48354604 z"
       id="path5624-3"
       inkscape:connector-curvature="0"
       sodipodi:nodetypes="ccccc" />
    <path
       style="fill:none;stroke:#000000;stroke-width:0.26458332px;stroke-linecap:butt;stroke-linejoin:miter;stroke-opacity:1"
       d="m -50.070755,7.8903028 c 1.59122,6.3517332 5.384691,12.1784002 2.133089,19.6847382 -3.071469,3.783735 -3.926499,3.328762 -7.04083,-0.03151 -3.595759,-3.917487 -4.04554,-13.74075 -5.12413,-19.7568512 2.81603,-3.965519 4.08431,-6.558669 10.031871,0.103627 z"
       id="path5624-2-4"
       inkscape:connector-curvature="0"
       sodipodi:nodetypes="ccccc" />
    <path
       style="fill:none;stroke:#000000;stroke-width:0.26458332px;stroke-linecap:butt;stroke-linejoin:miter;stroke-opacity:1"
       d="m -42.638586,25.663828 c -4.383328,-2.173068 -4.09099,0.591646 -5.29908,1.911213 -3.82496,0.500052 -3.497048,3.893084 -1.70297,6.201844 22.588202,19.766383 34.996621,17.742871 7.00205,-8.113057 z"
       id="path5548-5-8"
       inkscape:connector-curvature="0"
       sodipodi:nodetypes="cccc" />
    <path
       style="fill:none;stroke:#000000;stroke-width:0.22931764px;stroke-linecap:butt;stroke-linejoin:miter;stroke-opacity:1"
       d="m -50.769054,-40.937796 c -22.656592,-0.68671 -27.106232,31.3412888 -0.636011,34.4230998 22.37632,-1.80381 23.506001,-34.4762698 0.636011,-34.4230998 z"
       id="path5662-0"
       inkscape:connector-curvature="0"
       sodipodi:nodetypes="ccc" />
    <path
       style="fill:none;stroke:#000000;stroke-width:0.20845558px;stroke-linecap:butt;stroke-linejoin:miter;stroke-opacity:1"
       d="m -63.107825,7.7866758 c -0.92865,42.4415162 11.837901,99.6160342 19.76789,-0.300572 -7.147791,-21.4564118 -14.55252,-13.040617 -19.76789,0.300572 z"
       id="path5664-3"
       inkscape:connector-curvature="0"
       sodipodi:nodetypes="ccc" />
    <path
       style="fill:none;stroke:#000000;stroke-width:0.26458332px;stroke-linecap:butt;stroke-linejoin:miter;stroke-opacity:1"
       d="m 106.48351,22.707506 c -4.38333,-2.173065 -4.09099,0.591646 -5.29908,1.911213 -3.824963,0.500054 -3.497053,3.893081 -1.702973,6.201846 22.588203,19.766375 34.996613,17.742866 7.002053,-8.113059 z"
       id="path5548-8"
       inkscape:connector-curvature="0"
       sodipodi:nodetypes="cccc" />
    <path
       style="fill:none;stroke:#000000;stroke-width:0.26458332px;stroke-linecap:butt;stroke-linejoin:miter;stroke-opacity:1"
       d="m 64.420737,71.76158 c -0.9532,-6.43381 -3.95428,-8.078421 -9.58845,-3.56524 -15.92091,30.93416 2.73003,36.89149 9.58845,3.56524 z"
       id="path5584-9"
       inkscape:connector-curvature="0"
       sodipodi:nodetypes="ccc" />
    <path
       style="fill:none;stroke:#000000;stroke-width:0.23925547px;stroke-linecap:butt;stroke-linejoin:miter;stroke-opacity:1"
       d="m 51.517477,95.39576 c -5.10834,2.41841 -6.46548,-2.32943 -6.29883,-5.02829 -32.831375,29.42629 -25.610535,60.99441 6.29883,5.02829 z"
       id="path5586-87"
       inkscape:connector-curvature="0"
       sodipodi:nodetypes="ccc" />
    <path
       style="fill:none;stroke:#000000;stroke-width:0.26458332px;stroke-linecap:butt;stroke-linejoin:miter;stroke-opacity:1"
       d="m 73.324847,66.72511 c -5.53476,-3.415971 -8.72604,-2.18025 -8.90411,5.03647 13.40182,32.10589 29.97396,21.67939 8.90411,-5.03647 z"
       id="path5584-4-96"
       inkscape:connector-curvature="0"
       sodipodi:nodetypes="ccc" />
    <path
       style="fill:none;stroke:#000000;stroke-width:0.23925547px;stroke-linecap:butt;stroke-linejoin:miter;stroke-opacity:1"
       d="m 85.141907,92.01042 c -1.85239,5.33972 -6.19142,2.98245 -8.00077,0.973 -1.99742,44.04333 25.589773,61.00312 8.00077,-0.973 z"
       id="path5586-7-5"
       inkscape:connector-curvature="0"
       sodipodi:nodetypes="ccc" />
    <path
       style="fill:none;stroke:#000000;stroke-width:0.26458332px;stroke-linecap:butt;stroke-linejoin:miter;stroke-opacity:1"
       d="m 83.078557,5.3479478 c 5.8289,2.983354 12.71223,3.963273 16.22238,11.3522392 0.826443,4.80287 -0.0789,5.147021 -4.65853,5.279432 -5.31599,0.128016 -13.00681,-5.999806 -18.24559,-9.148125 -1.13143,-4.7302472 -2.24862,-7.3919792 6.68174,-7.4835462 z"
       id="path5624-39"
       inkscape:connector-curvature="0"
       sodipodi:nodetypes="ccccc" />
    <path
       style="fill:none;stroke:#000000;stroke-width:0.26458332px;stroke-linecap:butt;stroke-linejoin:miter;stroke-opacity:1"
       d="m 69.665997,13.235693 c 1.59122,6.351733 5.38469,12.1784 2.13308,19.684738 -3.07146,3.783735 -3.92649,3.328762 -7.04083,-0.03151 -3.59575,-3.917487 -4.04554,-13.74075 -5.12413,-19.756851 2.81603,-3.9655192 4.08431,-6.5586692 10.03188,0.103627 z"
       id="path5624-2-9"
       inkscape:connector-curvature="0"
       sodipodi:nodetypes="ccccc" />
    <path
       style="fill:none;stroke:#000000;stroke-width:0.26458332px;stroke-linecap:butt;stroke-linejoin:miter;stroke-opacity:1"
       d="m 77.098157,31.009218 c -4.38332,-2.173068 -4.09099,0.591646 -5.29908,1.911213 -3.82496,0.500052 -3.49704,3.893084 -1.70297,6.201844 22.58821,19.766383 34.996633,17.742871 7.00205,-8.113057 z"
       id="path5548-5-4"
       inkscape:connector-curvature="0"
       sodipodi:nodetypes="cccc" />
    <path
       style="fill:none;stroke:#000000;stroke-width:0.22931764px;stroke-linecap:butt;stroke-linejoin:miter;stroke-opacity:1"
       d="m 68.967697,-35.592402 c -22.65659,-0.68671 -27.10623,31.3412848 -0.63601,34.4230958 22.37632,-1.80381 23.506,-34.4762658 0.63601,-34.4230958 z"
       id="path5662-2"
       inkscape:connector-curvature="0"
       sodipodi:nodetypes="ccc" />
    <path
       style="fill:none;stroke:#000000;stroke-width:0.20845558px;stroke-linecap:butt;stroke-linejoin:miter;stroke-opacity:1"
       d="m 56.628927,13.132066 c -0.92865,42.441516 11.8379,99.616034 19.76789,-0.300572 -7.1478,-21.4564122 -14.55252,-13.04061715 -19.76789,0.300572 z"
       id="path5664-6"
       inkscape:connector-curvature="0"
       sodipodi:nodetypes="ccc" />
  </g>
  <g
     inkscape:groupmode="layer"
     id="layer2"
     inkscape:label="body">
    <path
       style="fill:#6c5353;fill-opacity:1;stroke:#000000;stroke-width:0.22931764px;stroke-linecap:butt;stroke-linejoin:miter;stroke-opacity:1"
       d="m -322.1693,-43.139107 c -22.65659,-0.686707 -27.10623,31.341287 -0.63601,34.4230984 22.37632,-1.8038094 23.506,-34.4762644 0.63601,-34.4230984 z"
       id="path5662"
       inkscape:connector-curvature="0"
       sodipodi:nodetypes="ccc" />
    <path
       style="fill:#6c5353;fill-opacity:1;stroke:#000000;stroke-width:0.20845558px;stroke-linecap:butt;stroke-linejoin:miter;stroke-opacity:1"
       d="m -332.99617,6.3413074 c -0.92865,42.4415166 11.8379,99.6160326 19.76789,-0.300571 -7.14779,-21.4564114 -14.55252,-13.040617 -19.76789,0.300571 z"
       id="path5664"
       inkscape:connector-curvature="0"
       sodipodi:nodetypes="ccc"
       transform="translate(0,8.3923341e-6)" />
  </g>
  <g
     inkscape:groupmode="layer"
     id="layer3"
     inkscape:label="Back">
    <path
       style="fill:#6c5353;fill-opacity:1;stroke:#000000;stroke-width:0.26458332px;stroke-linecap:butt;stroke-linejoin:miter;stroke-opacity:1"
       d="m -313.22828,6.0407448 c 0.97762,6.4746222 4.19755,12.6368082 0.24424,19.7984662 -3.41864,3.473254 -4.22633,2.938738 -7.00567,-0.70349 -3.20537,-4.242847 -2.71537,-14.064184 -3.21473,-20.1557744 3.18172,-3.6785922 4.69174,-6.1388277 9.97616,1.0607982 z"
       id="path5624"
       inkscape:connector-curvature="0"
       sodipodi:nodetypes="ccccc" />
    <path
       style="fill:#6c5353;stroke:#000000;stroke-width:0.26458332px;stroke-linecap:butt;stroke-linejoin:miter;stroke-opacity:1"
       d="m -312.00245,31.109128 c -2.0476,-4.443327 -3.55574,-2.107822 -5.32451,-1.839153 -3.29118,-2.0121 -5.1661,0.8348 -5.21909,3.758207 5.17259,29.566547 16.1013,35.781562 10.5436,-1.919054 z"
       id="path5548"
       inkscape:connector-curvature="0"
       sodipodi:nodetypes="cccc" />
    <path
       style="fill:#6c5353;fill-opacity:1;stroke:#000000;stroke-width:0.26458332px;stroke-linecap:butt;stroke-linejoin:miter;stroke-opacity:1"
       d="m -315.94284,62.730995 c -3.07097,-5.733379 -6.45123,-6.267281 -10.22917,-0.115862 -4.53268,34.494221 15.03424,33.799491 10.22917,0.115862 z"
       id="path5584-4"
       inkscape:connector-curvature="0"
       sodipodi:nodetypes="ccc" />
    <path
       style="fill:#6c5353;fill-opacity:1;stroke:#000000;stroke-width:0.23925547px;stroke-linecap:butt;stroke-linejoin:miter;stroke-opacity:1"
       d="m -316.21223,86.554796 c -2.13801,5.231911 -6.34343,2.643793 -8.04164,0.539579 -4.37263,43.871225 22.25857,62.295845 8.04164,-0.539579 z"
       id="path5586-7"
       inkscape:connector-curvature="0"
       sodipodi:nodetypes="ccc" />
  </g>
  <g
     inkscape:groupmode="layer"
     id="layer4"
     inkscape:label="front">
    <path
       style="fill:#6c5353;fill-opacity:1;stroke:#000000;stroke-width:0.26458332px;stroke-linecap:butt;stroke-linejoin:miter;stroke-opacity:1"
       d="m -319.7109,63.429419 c -2.33858,-6.069072 -5.6269,-7.016791 -10.13637,-1.379656 -8.76259,33.669202 10.74011,35.398952 10.13637,1.379656 z"
       id="path5584"
       inkscape:connector-curvature="0"
       sodipodi:nodetypes="ccc" />
    <path
       style="fill:#6c5353;fill-opacity:1;stroke:#000000;stroke-width:0.23925547px;stroke-linecap:butt;stroke-linejoin:miter;stroke-opacity:1"
       d="m -323.6933,87.052193 c -2.60586,5.015298 -6.55794,2.054742 -8.05734,-0.19547 -8.35226,43.290257 16.48916,64.065017 8.05734,0.19547 z"
       id="path5586"
       inkscape:connector-curvature="0"
       sodipodi:nodetypes="ccc" />
    <path
       style="fill:#6c5353;fill-opacity:1;stroke:#000000;stroke-width:0.26458332px;stroke-linecap:butt;stroke-linejoin:miter;stroke-opacity:1"
       d="m -321.28661,8.1920923 c 0.63934,6.5167247 3.53423,12.8381287 -0.78643,19.7843497 -3.59475,3.290637 -4.37354,2.714813 -6.95956,-1.067114 -2.98023,-4.40391 -1.97979,-14.186436 -2.16145,-20.2957617 3.36884,-3.5080272 5.00486,-5.88634412 9.90744,1.578531 z"
       id="path5624-2"
       inkscape:connector-curvature="0"
       sodipodi:nodetypes="ccccc" />
    <path
       style="fill:#6c5353;fill-opacity:1;stroke:#000000;stroke-width:0.26458332px;stroke-linecap:butt;stroke-linejoin:miter;stroke-opacity:1"
       d="m -319.50451,33.089769 c -2.17923,-4.380272 -3.61705,-2.000818 -5.37702,-1.679509 -3.34972,-1.913034 -5.13889,0.988526 -5.10466,3.912208 6.05222,29.399106 17.16146,35.285371 10.48168,-2.232699 z"
       id="path5548-5"
       inkscape:connector-curvature="0"
       sodipodi:nodetypes="cccc" />
  </g>
</svg>
